<?xml version="1.0" encoding="UTF-8"?>
<!-- Created with Inkscape (http://www.inkscape.org/) -->
<svg width="1e3" height="250" version="1.1" xmlns="http://www.w3.org/2000/svg">
 <rect width="1e3" height="250" ry="10" fill="#fff" stroke-linecap="round"/>
 <g aria-label="Debrix">
  <path d="m65.5 140h-22.9v-64.6h23.1q9.75 0 16.8 3.88 7.04 3.85 10.8 11.1 3.82 7.23 3.82 17.3 0 10.1-3.82 17.4-3.79 7.26-10.9 11.1-7.07 3.88-16.9 3.88zm-9.24-11.7h8.68q6.06 0 10.2-2.15 4.16-2.18 6.25-6.72 2.11-4.57 2.11-11.8 0-7.16-2.11-11.7-2.08-4.54-6.22-6.69-4.13-2.15-10.2-2.15h-8.71z"/>
  <path d="m129 141q-7.48 0-12.9-3.03-5.36-3.06-8.27-8.64-2.9-5.62-2.9-13.3 0-7.48 2.9-13.1t8.17-8.8q5.3-3.16 12.4-3.16 4.8 0 8.93 1.55 4.16 1.51 7.26 4.57 3.12 3.06 4.86 7.7 1.74 4.61 1.74 10.8v3.69h-40.9v-8.33h28.3q0-2.9-1.26-5.14-1.26-2.24-3.5-3.5-2.21-1.29-5.14-1.29-3.06 0-5.43 1.42-2.33 1.39-3.66 3.75-1.33 2.33-1.36 5.21v7.92q0 3.6 1.33 6.22 1.36 2.62 3.82 4.04 2.46 1.42 5.84 1.42 2.24 0 4.1-0.631 1.86-0.631 3.19-1.89t2.02-3.09l12.4 0.82q-0.947 4.48-3.88 7.82-2.9 3.31-7.51 5.17-4.57 1.83-10.6 1.83z"/>
  <path d="m160 140v-64.6h13.4v24.3h0.41q0.883-1.96 2.56-3.98 1.7-2.05 4.42-3.41 2.74-1.39 6.81-1.39 5.3 0 9.78 2.78 4.48 2.74 7.16 8.3 2.68 5.52 2.68 13.9 0 8.11-2.62 13.7-2.59 5.55-7.07 8.42-4.45 2.84-9.97 2.84-3.91 0-6.66-1.29-2.71-1.29-4.45-3.25-1.74-1.99-2.65-4.01h-0.599v7.76zm13.2-24.2q0 4.32 1.2 7.54t3.47 5.02q2.27 1.77 5.52 1.77 3.28 0 5.55-1.8 2.27-1.83 3.44-5.05 1.2-3.25 1.2-7.48 0-4.2-1.17-7.38t-3.44-4.99q-2.27-1.8-5.58-1.8-3.28 0-5.55 1.74-2.24 1.74-3.44 4.92t-1.2 7.51z"/>
  <path d="m216 140v-48.5h13v8.46h0.505q1.33-4.51 4.45-6.81 3.12-2.33 7.19-2.33 1.01 0 2.18 0.126t2.05 0.347v11.9q-0.947-0.284-2.62-0.505-1.67-0.221-3.06-0.221-2.97 0-5.3 1.29-2.3 1.26-3.66 3.53-1.33 2.27-1.33 5.24v27.4z"/>
  <path d="m253 140v-48.5h13.4v48.5zm6.75-54.7q-3 0-5.14-1.99-2.11-2.02-2.11-4.83 0-2.78 2.11-4.76 2.15-2.02 5.14-2.02 3 0 5.11 2.02 2.15 1.99 2.15 4.76 0 2.81-2.15 4.83-2.11 1.99-5.11 1.99z"/>
  <path d="m288 91.9 8.9 16.9 9.12-16.9h13.8l-14 24.2 14.4 24.2h-13.7l-9.56-16.8-9.4 16.8h-13.9l14.4-24.2-13.9-24.2z"/>
 </g>
  <path d="m923 43-27.6 17.5a1.21 1.33 0 0 0 0 2.31l27.6 17.5a3.63 3.99 0 0 0 3.63-8e-5l27.6-17.5a1.21 1.33 0 0 0 0-2.31l-27.6-17.5a3.63 3.99 0 0 0-3.63-5e-6zm-99.1 21-27.6 17.5a1.21 1.33 0 0 0 0 2.31l60.5 38.6a3.63 3.99 0 0 0 3.63 5e-5l27.6-17.5a1.21 1.33 0 0 0 0-2.31l-60.5-38.6a3.63 3.99 0 0 0-3.63-1.5e-5zm67.9 3.5v35a3.63 3.99 0 0 0 1.81 3.46l27.6 17.5a1.21 1.33 0 0 0 1.81-1.15v-35a3.63 3.99 0 0 0-1.81-3.46l-27.6-17.5a1.21 1.33 0 0 0-1.81 1.15zm64.3-1.15-27.6 17.5a3.63 3.99 0 0 0-1.81 3.46v35a1.21 1.33 0 0 0 1.81 1.15l27.6-17.5a3.63 3.99 0 0 0 1.81-3.46v-35a1.21 1.33 0 0 0-1.81-1.15zm-163 22.1v35a3.63 3.99 0 0 0 1.81 3.46l29.3 18.7a3.63 3.99 0 0 1 1.81 3.46v37.4a3.63 3.99 0 0 0 1.81 3.46l27.6 17.5a1.21 1.33 0 0 0 1.81-1.15v-76.9a3.63 3.99 0 0 0-1.81-3.46l-60.5-38.6a1.21 1.33 0 0 0-1.81 1.15zm97.2 19.8-27.6 17.5a3.63 3.99 0 0 0-1.81 3.46v76.9a1.21 1.33 0 0 0 1.81 1.15l27.6-17.5a3.63 3.99 0 0 0 1.81-3.46v-76.9a1.21 1.33 0 0 0-1.81-1.15z" fill="#45979b"/>
 <g aria-label="Efficient progressive component-based Javascript library">
  <path d="m44.6 173v-17.9h10.8v1.92h-8.62v6.04h8.06v1.92h-8.06v6.07h8.76v1.92z"/>
  <path d="m65 159v1.75h-7.23v-1.75zm-5.06 13.4v-15.3q0-1.15 0.541-1.92 0.541-0.768 1.41-1.15t1.82-0.384q0.759 0 1.24 0.122 0.48 0.122 0.716 0.227l-0.593 1.78q-0.157-0.0524-0.436-0.131-0.271-0.0785-0.716-0.0785-1.02 0-1.47 0.515-0.445 0.515-0.445 1.51v14.8z"/>
  <path d="m73.8 159v1.75h-7.23v-1.75zm-5.06 13.4v-15.3q0-1.15 0.541-1.92 0.541-0.768 1.41-1.15t1.82-0.384q0.759 0 1.24 0.122 0.48 0.122 0.716 0.227l-0.593 1.78q-0.157-0.0524-0.436-0.131-0.271-0.0785-0.716-0.0785-1.02 0-1.47 0.515-0.445 0.515-0.445 1.51v14.8z"/>
  <path d="m76.7 173v-13.4h2.06v13.4zm1.05-15.6q-0.602 0-1.04-0.41-0.428-0.41-0.428-0.986 0-0.576 0.428-0.986 0.436-0.41 1.04-0.41 0.602 0 1.03 0.41 0.436 0.41 0.436 0.986 0 0.576-0.436 0.986-0.428 0.41-1.03 0.41z"/>
  <path d="m88 173q-1.88 0-3.25-0.89t-2.09-2.45q-0.733-1.56-0.733-3.57 0-2.04 0.751-3.6 0.759-1.57 2.11-2.45 1.36-0.89 3.18-0.89 1.41 0 2.55 0.524 1.13 0.524 1.86 1.47 0.724 0.942 0.899 2.2h-2.06q-0.236-0.916-1.05-1.62-0.803-0.716-2.16-0.716-1.2 0-2.11 0.628-0.899 0.62-1.41 1.75-0.497 1.13-0.497 2.64 0 1.55 0.489 2.71 0.497 1.15 1.4 1.79 0.908 0.637 2.13 0.637 0.803 0 1.46-0.279 0.655-0.279 1.11-0.803 0.454-0.524 0.646-1.26h2.06q-0.175 1.19-0.864 2.14-0.681 0.942-1.81 1.5-1.12 0.55-2.6 0.55z"/>
  <path d="m96.3 173v-13.4h2.06v13.4zm1.05-15.6q-0.602 0-1.04-0.41-0.428-0.41-0.428-0.986 0-0.576 0.428-0.986 0.436-0.41 1.04-0.41 0.602 0 1.03 0.41 0.436 0.41 0.436 0.986 0 0.576-0.436 0.986-0.428 0.41-1.03 0.41z"/>
  <path d="m108 173q-1.94 0-3.34-0.855-1.4-0.864-2.16-2.41-0.751-1.55-0.751-3.61t0.751-3.63q0.759-1.58 2.11-2.46 1.36-0.89 3.18-0.89 1.05 0 2.07 0.349 1.02 0.349 1.86 1.13 0.838 0.777 1.34 2.06 0.497 1.28 0.497 3.16v0.873h-10.3v-1.78h8.24q0-1.13-0.454-2.02-0.445-0.89-1.27-1.41-0.82-0.515-1.94-0.515-1.23 0-2.13 0.611-0.89 0.602-1.37 1.57-0.48 0.969-0.48 2.08v1.19q0 1.52 0.524 2.57 0.532 1.05 1.47 1.6 0.942 0.541 2.19 0.541 0.812 0 1.47-0.227 0.663-0.236 1.14-0.698 0.48-0.471 0.742-1.17l1.99 0.559q-0.314 1.01-1.06 1.78-0.742 0.759-1.83 1.19-1.09 0.419-2.45 0.419z"/>
  <path d="m118 165v8.06h-2.06v-13.4h1.99v2.09h0.175q0.471-1.02 1.43-1.64 0.96-0.628 2.48-0.628 1.36 0 2.38 0.559 1.02 0.55 1.59 1.68 0.567 1.12 0.567 2.83v8.52h-2.06v-8.38q0-1.58-0.82-2.46-0.82-0.89-2.25-0.89-0.986 0-1.76 0.428-0.768 0.428-1.21 1.25-0.445 0.82-0.445 1.99z"/>
  <path d="m137 159v1.75h-6.95v-1.75zm-4.92-3.21h2.06v12.8q0 0.873 0.253 1.31 0.262 0.428 0.663 0.576 0.41 0.14 0.864 0.14 0.34 0 0.559-0.0349 0.218-0.0436 0.349-0.0698l0.419 1.85q-0.209 0.0785-0.585 0.157-0.375 0.0873-0.951 0.0873-0.873 0-1.71-0.375-0.829-0.375-1.38-1.14-0.541-0.768-0.541-1.94z"/>
  <path d="m147 178v-18.4h1.99v2.13h0.244q0.227-0.349 0.628-0.89 0.41-0.55 1.17-0.977 0.768-0.436 2.08-0.436 1.69 0 2.98 0.846 1.29 0.846 2.02 2.4t0.724 3.67q0 2.13-0.724 3.69-0.724 1.55-2.01 2.41-1.28 0.846-2.96 0.846-1.29 0-2.07-0.428-0.777-0.436-1.2-0.986-0.419-0.559-0.646-0.925h-0.175v7.09zm2.02-11.7q0 1.52 0.445 2.68 0.445 1.15 1.3 1.81 0.855 0.646 2.09 0.646 1.29 0 2.16-0.681 0.873-0.689 1.31-1.85 0.445-1.17 0.445-2.6 0-1.41-0.436-2.55-0.428-1.14-1.3-1.81-0.864-0.672-2.17-0.672-1.26 0-2.11 0.637-0.855 0.628-1.29 1.76-0.436 1.13-0.436 2.63z"/>
  <path d="m162 173v-13.4h1.99v2.02h0.14q0.367-0.995 1.33-1.61 0.96-0.62 2.16-0.62 0.227 0 0.567 9e-3 0.34 9e-3 0.515 0.0262v2.09q-0.105-0.0262-0.48-0.0785-0.367-0.0611-0.777-0.0611-0.977 0-1.75 0.41-0.759 0.401-1.2 1.12-0.436 0.707-0.436 1.61v8.48z"/>
  <path d="m176 173q-1.82 0-3.19-0.864-1.36-0.864-2.13-2.42-0.759-1.55-0.759-3.63 0-2.09 0.759-3.66 0.768-1.56 2.13-2.43 1.37-0.864 3.19-0.864t3.18 0.864q1.37 0.864 2.13 2.43 0.768 1.56 0.768 3.66 0 2.08-0.768 3.63-0.759 1.55-2.13 2.42-1.36 0.864-3.18 0.864zm0-1.85q1.38 0 2.27-0.707t1.32-1.86q0.428-1.15 0.428-2.5 0-1.34-0.428-2.5-0.428-1.16-1.32-1.88-0.89-0.716-2.27-0.716t-2.27 0.716q-0.89 0.716-1.32 1.88-0.428 1.16-0.428 2.5 0 1.34 0.428 2.5 0.428 1.15 1.32 1.86t2.27 0.707z"/>
  <path d="m190 178q-1.49 0-2.57-0.384-1.07-0.375-1.79-0.995-0.707-0.611-1.13-1.31l1.64-1.15q0.279 0.367 0.707 0.838 0.428 0.48 1.17 0.829 0.751 0.358 1.96 0.358 1.62 0 2.68-0.785t1.06-2.46v-2.72h-0.175q-0.227 0.367-0.646 0.908-0.41 0.532-1.19 0.951-0.768 0.41-2.08 0.41-1.62 0-2.91-0.768-1.28-0.768-2.03-2.23-0.742-1.47-0.742-3.56 0-2.06 0.724-3.59 0.724-1.54 2.02-2.37 1.29-0.846 2.98-0.846 1.31 0 2.08 0.436 0.777 0.428 1.19 0.977 0.419 0.541 0.646 0.89h0.209v-2.13h1.99v13.8q0 1.73-0.785 2.81-0.777 1.09-2.09 1.6-1.31 0.515-2.91 0.515zm-0.0698-7.37q1.24 0 2.09-0.567t1.3-1.63q0.445-1.06 0.445-2.55 0-1.45-0.436-2.56t-1.29-1.74q-0.855-0.628-2.11-0.628-1.31 0-2.18 0.663-0.864 0.663-1.3 1.78-0.428 1.12-0.428 2.48 0 1.4 0.436 2.47 0.445 1.06 1.31 1.68 0.873 0.602 2.16 0.602z"/>
  <path d="m200 173v-13.4h1.99v2.02h0.14q0.367-0.995 1.33-1.61 0.96-0.62 2.16-0.62 0.227 0 0.567 9e-3t0.515 0.0262v2.09q-0.105-0.0262-0.48-0.0785-0.367-0.0611-0.777-0.0611-0.977 0-1.75 0.41-0.759 0.401-1.2 1.12-0.436 0.707-0.436 1.61v8.48z"/>
  <path d="m214 173q-1.94 0-3.34-0.855-1.4-0.864-2.16-2.41-0.751-1.55-0.751-3.61t0.751-3.63q0.759-1.58 2.11-2.46 1.36-0.89 3.18-0.89 1.05 0 2.07 0.349t1.86 1.13q0.838 0.777 1.34 2.06 0.497 1.28 0.497 3.16v0.873h-10.3v-1.78h8.24q0-1.13-0.454-2.02-0.445-0.89-1.27-1.41-0.82-0.515-1.94-0.515-1.23 0-2.13 0.611-0.89 0.602-1.37 1.57-0.48 0.969-0.48 2.08v1.19q0 1.52 0.524 2.57 0.532 1.05 1.47 1.6 0.942 0.541 2.19 0.541 0.812 0 1.47-0.227 0.663-0.236 1.14-0.698 0.48-0.471 0.742-1.17l1.99 0.559q-0.314 1.01-1.06 1.78-0.742 0.759-1.83 1.19-1.09 0.419-2.45 0.419z"/>
  <path d="m233 162-1.85 0.524q-0.175-0.463-0.515-0.899-0.332-0.445-0.908-0.733-0.576-0.288-1.47-0.288-1.23 0-2.05 0.567-0.812 0.559-0.812 1.42 0 0.768 0.559 1.21 0.559 0.445 1.75 0.742l1.99 0.489q1.8 0.436 2.68 1.34 0.881 0.89 0.881 2.3 0 1.15-0.663 2.06-0.655 0.908-1.83 1.43-1.18 0.524-2.74 0.524-2.05 0-3.39-0.89-1.34-0.89-1.7-2.6l1.95-0.489q0.279 1.08 1.06 1.62 0.785 0.541 2.05 0.541 1.44 0 2.29-0.611 0.855-0.62 0.855-1.48 0-0.698-0.489-1.17-0.489-0.48-1.5-0.716l-2.23-0.524q-1.84-0.436-2.71-1.35-0.855-0.925-0.855-2.31 0-1.13 0.637-2.01 0.646-0.873 1.75-1.37 1.12-0.497 2.53-0.497 1.99 0 3.12 0.873 1.14 0.873 1.62 2.3z"/>
  <path d="m245 162-1.85 0.524q-0.175-0.463-0.515-0.899-0.332-0.445-0.908-0.733-0.576-0.288-1.47-0.288-1.23 0-2.05 0.567-0.812 0.559-0.812 1.42 0 0.768 0.559 1.21 0.559 0.445 1.75 0.742l1.99 0.489q1.8 0.436 2.68 1.34 0.881 0.89 0.881 2.3 0 1.15-0.663 2.06-0.655 0.908-1.83 1.43-1.18 0.524-2.74 0.524-2.05 0-3.39-0.89-1.34-0.89-1.7-2.6l1.95-0.489q0.279 1.08 1.06 1.62 0.785 0.541 2.05 0.541 1.44 0 2.29-0.611 0.855-0.62 0.855-1.48 0-0.698-0.489-1.17-0.489-0.48-1.5-0.716l-2.23-0.524q-1.84-0.436-2.71-1.35-0.855-0.925-0.855-2.31 0-1.13 0.637-2.01 0.646-0.873 1.75-1.37 1.12-0.497 2.53-0.497 1.99 0 3.12 0.873 1.14 0.873 1.62 2.3z"/>
  <path d="m249 173v-13.4h2.06v13.4zm1.05-15.6q-0.602 0-1.04-0.41-0.428-0.41-0.428-0.986 0-0.576 0.428-0.986 0.436-0.41 1.04-0.41t1.03 0.41q0.436 0.41 0.436 0.986 0 0.576-0.436 0.986-0.428 0.41-1.03 0.41z"/>
  <path d="m265 159-4.96 13.4h-2.09l-4.96-13.4h2.23l3.7 10.7h0.14l3.7-10.7z"/>
  <path d="m273 173q-1.94 0-3.34-0.855-1.4-0.864-2.16-2.41-0.751-1.55-0.751-3.61t0.751-3.63q0.759-1.58 2.11-2.46 1.36-0.89 3.18-0.89 1.05 0 2.07 0.349t1.86 1.13q0.838 0.777 1.34 2.06 0.497 1.28 0.497 3.16v0.873h-10.3v-1.78h8.24q0-1.13-0.454-2.02-0.445-0.89-1.27-1.41-0.82-0.515-1.94-0.515-1.23 0-2.13 0.611-0.89 0.602-1.37 1.57-0.48 0.969-0.48 2.08v1.19q0 1.52 0.524 2.57 0.532 1.05 1.47 1.6 0.942 0.541 2.19 0.541 0.812 0 1.47-0.227 0.663-0.236 1.14-0.698 0.48-0.471 0.742-1.17l1.99 0.559q-0.314 1.01-1.06 1.78-0.742 0.759-1.83 1.19-1.09 0.419-2.45 0.419z"/>
  <path d="m294 173q-1.88 0-3.25-0.89-1.36-0.89-2.09-2.45-0.733-1.56-0.733-3.57 0-2.04 0.75-3.6 0.759-1.57 2.11-2.45 1.36-0.89 3.18-0.89 1.41 0 2.55 0.524 1.13 0.524 1.86 1.47 0.724 0.942 0.899 2.2h-2.06q-0.236-0.916-1.05-1.62-0.803-0.716-2.16-0.716-1.2 0-2.11 0.628-0.899 0.62-1.41 1.75-0.497 1.13-0.497 2.64 0 1.55 0.489 2.71 0.497 1.15 1.4 1.79 0.908 0.637 2.13 0.637 0.803 0 1.46-0.279 0.654-0.279 1.11-0.803 0.454-0.524 0.646-1.26h2.06q-0.175 1.19-0.864 2.14-0.681 0.942-1.81 1.5-1.12 0.55-2.6 0.55z"/>
  <path d="m308 173q-1.82 0-3.19-0.864-1.36-0.864-2.13-2.42-0.759-1.55-0.759-3.63 0-2.09 0.759-3.66 0.768-1.56 2.13-2.43 1.37-0.864 3.19-0.864 1.82 0 3.18 0.864 1.37 0.864 2.13 2.43 0.768 1.56 0.768 3.66 0 2.08-0.768 3.63-0.759 1.55-2.13 2.42-1.36 0.864-3.18 0.864zm0-1.85q1.38 0 2.27-0.707t1.32-1.86 0.428-2.5q0-1.34-0.428-2.5t-1.32-1.88q-0.89-0.716-2.27-0.716-1.38 0-2.27 0.716-0.89 0.716-1.32 1.88t-0.428 2.5q0 1.34 0.428 2.5t1.32 1.86 2.27 0.707z"/>
  <path d="m317 173v-13.4h1.99v2.09h0.175q0.419-1.07 1.35-1.67 0.934-0.602 2.24-0.602 1.33 0 2.21 0.602 0.89 0.593 1.39 1.67h0.14q0.515-1.04 1.54-1.65 1.03-0.62 2.47-0.62 1.8 0 2.94 1.13 1.14 1.12 1.14 3.48v8.97h-2.06v-8.97q0-1.48-0.812-2.12t-1.91-0.637q-1.41 0-2.19 0.855-0.777 0.846-0.777 2.15v8.73h-2.09v-9.18q0-1.14-0.742-1.84-0.742-0.707-1.91-0.707-0.803 0-1.5 0.428-0.689 0.428-1.12 1.19-0.419 0.75-0.419 1.74v8.38z"/>
  <path d="m339 178v-18.4h1.99v2.13h0.244q0.227-0.349 0.628-0.89 0.41-0.55 1.17-0.977 0.768-0.436 2.08-0.436 1.69 0 2.98 0.846 1.29 0.846 2.02 2.4t0.724 3.67q0 2.13-0.724 3.69-0.724 1.55-2.01 2.41-1.28 0.846-2.96 0.846-1.29 0-2.07-0.428-0.777-0.436-1.2-0.986-0.419-0.559-0.646-0.925h-0.175v7.09zm2.02-11.7q0 1.52 0.445 2.68 0.445 1.15 1.3 1.81 0.855 0.646 2.09 0.646 1.29 0 2.16-0.681 0.873-0.689 1.31-1.85 0.445-1.17 0.445-2.6 0-1.41-0.436-2.55-0.428-1.14-1.3-1.81-0.864-0.672-2.17-0.672-1.26 0-2.11 0.637-0.855 0.628-1.29 1.76-0.436 1.13-0.436 2.63z"/>
  <path d="m359 173q-1.82 0-3.19-0.864-1.36-0.864-2.13-2.42-0.759-1.55-0.759-3.63 0-2.09 0.759-3.66 0.768-1.56 2.13-2.43 1.37-0.864 3.19-0.864t3.18 0.864q1.37 0.864 2.13 2.43 0.768 1.56 0.768 3.66 0 2.08-0.768 3.63-0.759 1.55-2.13 2.42-1.36 0.864-3.18 0.864zm0-1.85q1.38 0 2.27-0.707t1.32-1.86q0.428-1.15 0.428-2.5 0-1.34-0.428-2.5-0.428-1.16-1.32-1.88-0.89-0.716-2.27-0.716t-2.27 0.716q-0.89 0.716-1.32 1.88-0.428 1.16-0.428 2.5 0 1.34 0.428 2.5 0.428 1.15 1.32 1.86t2.27 0.707z"/>
  <path d="m370 165v8.06h-2.06v-13.4h1.99v2.09h0.175q0.471-1.02 1.43-1.64 0.96-0.628 2.48-0.628 1.36 0 2.38 0.559 1.02 0.55 1.59 1.68 0.567 1.12 0.567 2.83v8.52h-2.06v-8.38q0-1.58-0.82-2.46-0.82-0.89-2.25-0.89-0.986 0-1.76 0.428-0.768 0.428-1.21 1.25-0.445 0.82-0.445 1.99z"/>
  <path d="m388 173q-1.94 0-3.34-0.855-1.4-0.864-2.16-2.41-0.75-1.55-0.75-3.61t0.75-3.63q0.759-1.58 2.11-2.46 1.36-0.89 3.18-0.89 1.05 0 2.07 0.349 1.02 0.349 1.86 1.13 0.838 0.777 1.34 2.06 0.497 1.28 0.497 3.16v0.873h-10.3v-1.78h8.24q0-1.13-0.454-2.02-0.445-0.89-1.27-1.41-0.82-0.515-1.94-0.515-1.23 0-2.13 0.611-0.89 0.602-1.37 1.57t-0.48 2.08v1.19q0 1.52 0.524 2.57 0.532 1.05 1.47 1.6 0.942 0.541 2.19 0.541 0.812 0 1.47-0.227 0.663-0.236 1.14-0.698 0.48-0.471 0.742-1.17l1.99 0.559q-0.314 1.01-1.06 1.78-0.742 0.759-1.83 1.19-1.09 0.419-2.45 0.419z"/>
  <path d="m399 165v8.06h-2.06v-13.4h1.99v2.09h0.175q0.471-1.02 1.43-1.64 0.96-0.628 2.48-0.628 1.36 0 2.38 0.559 1.02 0.55 1.59 1.68 0.567 1.12 0.567 2.83v8.52h-2.06v-8.38q0-1.58-0.82-2.46-0.82-0.89-2.25-0.89-0.986 0-1.76 0.428-0.768 0.428-1.21 1.25-0.445 0.82-0.445 1.99z"/>
  <path d="m417 159v1.75h-6.95v-1.75zm-4.92-3.21h2.06v12.8q0 0.873 0.253 1.31 0.262 0.428 0.663 0.576 0.41 0.14 0.864 0.14 0.34 0 0.559-0.0349 0.218-0.0436 0.349-0.0698l0.419 1.85q-0.209 0.0785-0.585 0.157-0.375 0.0873-0.951 0.0873-0.873 0-1.71-0.375-0.829-0.375-1.38-1.14-0.541-0.768-0.541-1.94z"/>
  <path d="m428 164v1.92h-7.82v-1.92z"/>
  <path d="m431 173v-17.9h2.06v6.6h0.175q0.227-0.349 0.628-0.89 0.41-0.55 1.17-0.977 0.768-0.436 2.08-0.436 1.69 0 2.98 0.846 1.29 0.846 2.02 2.4 0.724 1.55 0.724 3.67 0 2.13-0.724 3.69-0.724 1.55-2.01 2.41-1.28 0.846-2.96 0.846-1.29 0-2.07-0.428-0.777-0.436-1.2-0.986-0.419-0.559-0.646-0.925h-0.244v2.06zm2.02-6.7q0 1.52 0.445 2.68 0.445 1.15 1.3 1.81 0.855 0.646 2.09 0.646 1.29 0 2.16-0.681 0.873-0.689 1.31-1.85 0.445-1.17 0.445-2.6 0-1.41-0.436-2.55-0.428-1.14-1.3-1.81-0.864-0.672-2.17-0.672-1.26 0-2.11 0.637-0.855 0.628-1.29 1.76-0.436 1.13-0.436 2.63z"/>
  <path d="m450 173q-1.27 0-2.31-0.48-1.04-0.489-1.65-1.41-0.611-0.925-0.611-2.23 0-1.15 0.454-1.87 0.454-0.724 1.21-1.13 0.759-0.41 1.68-0.611 0.925-0.209 1.86-0.332 1.22-0.157 1.98-0.236 0.768-0.0873 1.12-0.288 0.358-0.201 0.358-0.698v-0.0698q0-1.29-0.707-2.01-0.698-0.716-2.12-0.716-1.47 0-2.31 0.646t-1.18 1.38l-1.95-0.698q0.524-1.22 1.4-1.9 0.881-0.689 1.92-0.96 1.05-0.279 2.06-0.279 0.646 0 1.48 0.157 0.846 0.148 1.63 0.62 0.794 0.471 1.32 1.42 0.524 0.951 0.524 2.55v8.83h-2.06v-1.82h-0.105q-0.209 0.436-0.698 0.934-0.489 0.497-1.3 0.846-0.812 0.349-1.98 0.349zm0.314-1.85q1.22 0 2.06-0.48 0.846-0.48 1.27-1.24 0.436-0.759 0.436-1.6v-1.88q-0.131 0.157-0.576 0.288-0.436 0.122-1.01 0.218-0.567 0.0873-1.11 0.157-0.532 0.0611-0.864 0.105-0.803 0.105-1.5 0.34-0.689 0.227-1.12 0.689-0.419 0.454-0.419 1.24 0 1.07 0.794 1.62 0.803 0.541 2.03 0.541z"/>
  <path d="m470 162-1.85 0.524q-0.175-0.463-0.515-0.899-0.332-0.445-0.908-0.733-0.576-0.288-1.47-0.288-1.23 0-2.05 0.567-0.812 0.559-0.812 1.42 0 0.768 0.559 1.21 0.559 0.445 1.75 0.742l1.99 0.489q1.8 0.436 2.68 1.34 0.881 0.89 0.881 2.3 0 1.15-0.663 2.06-0.655 0.908-1.83 1.43-1.18 0.524-2.74 0.524-2.05 0-3.39-0.89-1.34-0.89-1.7-2.6l1.95-0.489q0.279 1.08 1.06 1.62 0.785 0.541 2.05 0.541 1.44 0 2.29-0.611 0.855-0.62 0.855-1.48 0-0.698-0.489-1.17-0.489-0.48-1.5-0.716l-2.23-0.524q-1.84-0.436-2.71-1.35-0.855-0.925-0.855-2.31 0-1.13 0.637-2.01 0.646-0.873 1.75-1.37 1.12-0.497 2.53-0.497 1.99 0 3.12 0.873 1.14 0.873 1.62 2.3z"/>
  <path d="m479 173q-1.94 0-3.34-0.855-1.4-0.864-2.16-2.41-0.75-1.55-0.75-3.61t0.75-3.63q0.759-1.58 2.11-2.46 1.36-0.89 3.18-0.89 1.05 0 2.07 0.349 1.02 0.349 1.86 1.13 0.838 0.777 1.34 2.06 0.497 1.28 0.497 3.16v0.873h-10.3v-1.78h8.24q0-1.13-0.454-2.02-0.445-0.89-1.27-1.41-0.82-0.515-1.94-0.515-1.23 0-2.13 0.611-0.89 0.602-1.37 1.57t-0.48 2.08v1.19q0 1.52 0.524 2.57 0.532 1.05 1.47 1.6 0.942 0.541 2.19 0.541 0.812 0 1.47-0.227 0.663-0.236 1.14-0.698 0.48-0.471 0.742-1.17l1.99 0.559q-0.314 1.01-1.06 1.78-0.742 0.759-1.83 1.19-1.09 0.419-2.45 0.419z"/>
  <path d="m492 173q-1.68 0-2.96-0.846-1.28-0.855-2.01-2.41-0.724-1.56-0.724-3.69 0-2.11 0.724-3.67t2.02-2.4q1.29-0.846 2.98-0.846 1.31 0 2.07 0.436 0.768 0.428 1.17 0.977 0.41 0.541 0.637 0.89h0.175v-6.6h2.06v17.9h-1.99v-2.06h-0.244q-0.227 0.367-0.646 0.925-0.419 0.55-1.2 0.986-0.777 0.428-2.07 0.428zm0.279-1.85q1.24 0 2.09-0.646 0.855-0.655 1.3-1.81 0.445-1.16 0.445-2.68 0-1.5-0.436-2.63-0.436-1.13-1.29-1.76-0.855-0.637-2.11-0.637-1.31 0-2.18 0.672-0.864 0.663-1.3 1.81-0.428 1.13-0.428 2.55 0 1.43 0.436 2.6 0.445 1.16 1.31 1.85 0.873 0.681 2.16 0.681z"/>
  <path d="m517 155h2.16v12.8q0 1.71-0.628 2.91t-1.77 1.82q-1.14 0.62-2.7 0.62-1.47 0-2.61-0.532-1.14-0.541-1.8-1.54-0.655-0.995-0.655-2.36h2.13q0 0.759 0.375 1.33 0.384 0.559 1.05 0.873 0.663 0.314 1.51 0.314 0.934 0 1.59-0.393 0.654-0.393 0.995-1.15 0.349-0.768 0.349-1.88z"/>
  <path d="m527 173q-1.27 0-2.31-0.48-1.04-0.489-1.65-1.41-0.611-0.925-0.611-2.23 0-1.15 0.454-1.87 0.454-0.724 1.21-1.13t1.68-0.611q0.925-0.209 1.86-0.332 1.22-0.157 1.98-0.236 0.768-0.0873 1.12-0.288 0.358-0.201 0.358-0.698v-0.0698q0-1.29-0.707-2.01-0.698-0.716-2.12-0.716-1.47 0-2.31 0.646t-1.18 1.38l-1.95-0.698q0.524-1.22 1.4-1.9 0.881-0.689 1.92-0.96 1.05-0.279 2.06-0.279 0.646 0 1.48 0.157 0.846 0.148 1.63 0.62 0.794 0.471 1.32 1.42t0.524 2.55v8.83h-2.06v-1.82h-0.105q-0.209 0.436-0.698 0.934-0.489 0.497-1.3 0.846-0.812 0.349-1.98 0.349zm0.314-1.85q1.22 0 2.06-0.48 0.846-0.48 1.27-1.24 0.436-0.759 0.436-1.6v-1.88q-0.131 0.157-0.576 0.288-0.436 0.122-1.01 0.218-0.567 0.0873-1.11 0.157-0.532 0.0611-0.864 0.105-0.803 0.105-1.5 0.34-0.689 0.227-1.12 0.689-0.419 0.454-0.419 1.24 0 1.07 0.794 1.62 0.803 0.541 2.03 0.541z"/>
  <path d="m547 159-4.96 13.4h-2.09l-4.96-13.4h2.23l3.7 10.7h0.14l3.7-10.7z"/>
  <path d="m554 173q-1.27 0-2.31-0.48-1.04-0.489-1.65-1.41-0.611-0.925-0.611-2.23 0-1.15 0.454-1.87 0.454-0.724 1.21-1.13t1.68-0.611q0.925-0.209 1.86-0.332 1.22-0.157 1.98-0.236 0.768-0.0873 1.12-0.288 0.358-0.201 0.358-0.698v-0.0698q0-1.29-0.707-2.01-0.698-0.716-2.12-0.716-1.47 0-2.31 0.646t-1.18 1.38l-1.95-0.698q0.524-1.22 1.4-1.9 0.881-0.689 1.92-0.96 1.05-0.279 2.06-0.279 0.646 0 1.48 0.157 0.846 0.148 1.63 0.62 0.794 0.471 1.32 1.42 0.524 0.951 0.524 2.55v8.83h-2.06v-1.82h-0.105q-0.209 0.436-0.698 0.934-0.489 0.497-1.3 0.846-0.812 0.349-1.98 0.349zm0.314-1.85q1.22 0 2.06-0.48 0.846-0.48 1.27-1.24 0.436-0.759 0.436-1.6v-1.88q-0.131 0.157-0.576 0.288-0.436 0.122-1.01 0.218-0.567 0.0873-1.11 0.157-0.532 0.0611-0.864 0.105-0.803 0.105-1.5 0.34-0.689 0.227-1.12 0.689-0.419 0.454-0.419 1.24 0 1.07 0.794 1.62 0.803 0.541 2.03 0.541z"/>
  <path d="m573 162-1.85 0.524q-0.175-0.463-0.515-0.899-0.332-0.445-0.908-0.733-0.576-0.288-1.47-0.288-1.23 0-2.05 0.567-0.812 0.559-0.812 1.42 0 0.768 0.559 1.21 0.559 0.445 1.75 0.742l1.99 0.489q1.8 0.436 2.68 1.34 0.881 0.89 0.881 2.3 0 1.15-0.663 2.06-0.655 0.908-1.83 1.43-1.18 0.524-2.74 0.524-2.05 0-3.39-0.89t-1.7-2.6l1.95-0.489q0.279 1.08 1.06 1.62 0.785 0.541 2.05 0.541 1.44 0 2.29-0.611 0.855-0.62 0.855-1.48 0-0.698-0.489-1.17-0.489-0.48-1.5-0.716l-2.23-0.524q-1.84-0.436-2.71-1.35-0.855-0.925-0.855-2.31 0-1.13 0.637-2.01 0.646-0.873 1.75-1.37 1.12-0.497 2.53-0.497 1.99 0 3.12 0.873 1.14 0.873 1.62 2.3z"/>
  <path d="m582 173q-1.88 0-3.25-0.89t-2.09-2.45q-0.733-1.56-0.733-3.57 0-2.04 0.75-3.6 0.759-1.57 2.11-2.45 1.36-0.89 3.18-0.89 1.41 0 2.55 0.524 1.13 0.524 1.86 1.47 0.724 0.942 0.899 2.2h-2.06q-0.236-0.916-1.05-1.62-0.803-0.716-2.16-0.716-1.2 0-2.11 0.628-0.899 0.62-1.41 1.75-0.497 1.13-0.497 2.64 0 1.55 0.489 2.71 0.497 1.15 1.4 1.79 0.908 0.637 2.13 0.637 0.803 0 1.46-0.279 0.655-0.279 1.11-0.803 0.454-0.524 0.646-1.26h2.06q-0.175 1.19-0.864 2.14-0.681 0.942-1.81 1.5-1.12 0.55-2.6 0.55z"/>
  <path d="m590 173v-13.4h1.99v2.02h0.14q0.367-0.995 1.33-1.61 0.96-0.62 2.16-0.62 0.227 0 0.567 9e-3 0.34 9e-3 0.515 0.0262v2.09q-0.105-0.0262-0.48-0.0785-0.367-0.0611-0.777-0.0611-0.977 0-1.75 0.41-0.759 0.401-1.2 1.12-0.436 0.707-0.436 1.61v8.48z"/>
  <path d="m599 173v-13.4h2.06v13.4zm1.05-15.6q-0.602 0-1.04-0.41-0.428-0.41-0.428-0.986 0-0.576 0.428-0.986 0.436-0.41 1.04-0.41t1.03 0.41q0.436 0.41 0.436 0.986 0 0.576-0.436 0.986-0.428 0.41-1.03 0.41z"/>
  <path d="m605 178v-18.4h1.99v2.13h0.244q0.227-0.349 0.628-0.89 0.41-0.55 1.17-0.977 0.768-0.436 2.08-0.436 1.69 0 2.98 0.846 1.29 0.846 2.02 2.4t0.724 3.67q0 2.13-0.724 3.69-0.724 1.55-2.01 2.41-1.28 0.846-2.96 0.846-1.29 0-2.07-0.428-0.777-0.436-1.2-0.986-0.419-0.559-0.646-0.925h-0.175v7.09zm2.02-11.7q0 1.52 0.445 2.68 0.445 1.15 1.3 1.81 0.855 0.646 2.09 0.646 1.29 0 2.16-0.681 0.873-0.689 1.31-1.85 0.445-1.17 0.445-2.6 0-1.41-0.436-2.55-0.428-1.14-1.3-1.81-0.864-0.672-2.17-0.672-1.26 0-2.11 0.637-0.855 0.628-1.29 1.76-0.436 1.13-0.436 2.63z"/>
  <path d="m626 159v1.75h-6.95v-1.75zm-4.92-3.21h2.06v12.8q0 0.873 0.253 1.31 0.262 0.428 0.663 0.576 0.41 0.14 0.864 0.14 0.34 0 0.559-0.0349 0.218-0.0436 0.349-0.0698l0.419 1.85q-0.209 0.0785-0.585 0.157-0.375 0.0873-0.951 0.0873-0.873 0-1.71-0.375-0.829-0.375-1.38-1.14-0.541-0.768-0.541-1.94z"/>
  <path d="m638 155v17.9h-2.06v-17.9z"/>
  <path d="m642 173v-13.4h2.06v13.4zm1.05-15.6q-0.602 0-1.04-0.41-0.428-0.41-0.428-0.986 0-0.576 0.428-0.986 0.436-0.41 1.04-0.41 0.602 0 1.03 0.41 0.436 0.41 0.436 0.986 0 0.576-0.436 0.986-0.428 0.41-1.03 0.41z"/>
  <path d="m648 173v-17.9h2.06v6.6h0.175q0.227-0.349 0.628-0.89 0.41-0.55 1.17-0.977 0.768-0.436 2.08-0.436 1.69 0 2.98 0.846 1.29 0.846 2.02 2.4t0.724 3.67q0 2.13-0.724 3.69-0.724 1.55-2.01 2.41-1.28 0.846-2.96 0.846-1.29 0-2.07-0.428-0.777-0.436-1.2-0.986-0.419-0.559-0.646-0.925h-0.244v2.06zm2.02-6.7q0 1.52 0.445 2.68 0.445 1.15 1.3 1.81 0.855 0.646 2.09 0.646 1.29 0 2.16-0.681 0.873-0.689 1.31-1.85 0.445-1.17 0.445-2.6 0-1.41-0.436-2.55-0.428-1.14-1.3-1.81-0.864-0.672-2.17-0.672-1.26 0-2.11 0.637-0.855 0.628-1.29 1.76-0.436 1.13-0.436 2.63z"/>
  <path d="m663 173v-13.4h1.99v2.02h0.14q0.367-0.995 1.33-1.61 0.96-0.62 2.16-0.62 0.227 0 0.567 9e-3 0.34 9e-3 0.515 0.0262v2.09q-0.105-0.0262-0.48-0.0785-0.367-0.0611-0.777-0.0611-0.977 0-1.75 0.41-0.759 0.401-1.2 1.12-0.436 0.707-0.436 1.61v8.48z"/>
  <path d="m676 173q-1.27 0-2.31-0.48-1.04-0.489-1.65-1.41-0.611-0.925-0.611-2.23 0-1.15 0.454-1.87 0.454-0.724 1.21-1.13t1.68-0.611q0.925-0.209 1.86-0.332 1.22-0.157 1.98-0.236 0.768-0.0873 1.12-0.288 0.358-0.201 0.358-0.698v-0.0698q0-1.29-0.707-2.01-0.698-0.716-2.12-0.716-1.47 0-2.31 0.646-0.838 0.646-1.18 1.38l-1.95-0.698q0.524-1.22 1.4-1.9 0.881-0.689 1.92-0.96 1.05-0.279 2.06-0.279 0.646 0 1.48 0.157 0.846 0.148 1.63 0.62 0.794 0.471 1.32 1.42 0.524 0.951 0.524 2.55v8.83h-2.06v-1.82h-0.105q-0.209 0.436-0.698 0.934-0.489 0.497-1.3 0.846-0.812 0.349-1.98 0.349zm0.314-1.85q1.22 0 2.06-0.48 0.846-0.48 1.27-1.24 0.436-0.759 0.436-1.6v-1.88q-0.131 0.157-0.576 0.288-0.436 0.122-1.01 0.218-0.567 0.0873-1.11 0.157-0.532 0.0611-0.864 0.105-0.803 0.105-1.5 0.34-0.689 0.227-1.12 0.689-0.419 0.454-0.419 1.24 0 1.07 0.794 1.62 0.803 0.541 2.03 0.541z"/>
  <path d="m686 173v-13.4h1.99v2.02h0.14q0.367-0.995 1.33-1.61 0.96-0.62 2.16-0.62 0.227 0 0.567 9e-3 0.34 9e-3 0.515 0.0262v2.09q-0.105-0.0262-0.48-0.0785-0.367-0.0611-0.777-0.0611-0.977 0-1.75 0.41-0.759 0.401-1.2 1.12-0.436 0.707-0.436 1.61v8.48z"/>
  <path d="m697 178q-0.524 0-0.934-0.0873-0.41-0.0785-0.567-0.157l0.524-1.82q0.75 0.192 1.33 0.14 0.576-0.0524 1.02-0.515 0.454-0.454 0.829-1.47l0.384-1.05-4.96-13.5h2.23l3.7 10.7h0.14l3.7-10.7h2.23l-5.69 15.4q-0.384 1.04-0.951 1.72-0.567 0.689-1.32 1.02-0.742 0.332-1.68 0.332z"/>
 </g>
</svg>
