<?xml version="1.0" encoding="UTF-8"?>
<!-- Created with Inkscape (http://www.inkscape.org/) -->
<svg width="2e3" height="500" version="1.1" xmlns="http://www.w3.org/2000/svg">
 <g stroke-width="3.78">
  <g aria-label="Debrix">
   <path d="m131 281h-45.8v-129h46.2q19.5 0 33.6 7.76 14.1 7.7 21.6 22.1 7.64 14.5 7.64 34.6 0 20.2-7.64 34.7-7.57 14.5-21.8 22.3-14.1 7.76-33.8 7.76zm-18.5-23.4h17.4q12.1 0 20.4-4.29 8.33-4.35 12.5-13.4 4.23-9.15 4.23-23.6 0-14.3-4.23-23.4-4.16-9.09-12.4-13.4-8.27-4.29-20.4-4.29h-17.4z"/>
   <path d="m258 283q-15 0-25.7-6.06-10.7-6.12-16.5-17.3-5.81-11.2-5.81-26.6 0-15 5.81-26.3t16.3-17.6q10.6-6.31 24.9-6.31 9.59 0 17.9 3.09 8.33 3.03 14.5 9.15 6.25 6.12 9.72 15.4 3.47 9.21 3.47 21.6v7.38h-81.8v-16.7h56.5q0-5.81-2.52-10.3t-7-7q-4.42-2.59-10.3-2.59-6.12 0-10.9 2.84-4.67 2.78-7.32 7.51-2.65 4.67-2.71 10.4v15.8q0 7.19 2.65 12.4 2.71 5.24 7.64 8.08t11.7 2.84q4.48 0 8.2-1.26t6.37-3.79q2.65-2.52 4.04-6.18l24.9 1.64q-1.89 8.96-7.76 15.6-5.81 6.63-15 10.3-9.15 3.66-21.1 3.66z"/>
   <path d="m321 281v-129h26.9v48.6h0.82q1.77-3.91 5.11-7.95 3.41-4.1 8.83-6.81 5.49-2.78 13.6-2.78 10.6 0 19.6 5.55 8.96 5.49 14.3 16.6 5.36 11 5.36 27.7 0 16.2-5.24 27.4-5.17 11.1-14.1 16.8-8.9 5.68-19.9 5.68-7.82 0-13.3-2.59-5.43-2.59-8.9-6.5-3.47-3.98-5.3-8.01h-1.2v15.5zm26.3-48.5q0 8.64 2.4 15.1t6.94 10q4.54 3.53 11 3.53 6.56 0 11.1-3.6 4.54-3.66 6.88-10.1 2.4-6.5 2.4-15 0-8.39-2.33-14.8-2.33-6.37-6.88-9.97-4.54-3.6-11.2-3.6-6.56 0-11.1 3.47-4.48 3.47-6.88 9.84t-2.4 15z"/>
   <path d="m433 281v-96.9h26.1v16.9h1.01q2.65-9.02 8.9-13.6 6.25-4.67 14.4-4.67 2.02 0 4.35 0.252 2.33 0.252 4.1 0.694v23.9q-1.89-0.568-5.24-1.01-3.34-0.442-6.12-0.442-5.93 0-10.6 2.59-4.61 2.52-7.32 7.07-2.65 4.54-2.65 10.5v54.8z"/>
   <path d="m506 281v-96.9h26.9v96.9zm13.5-109q-5.99 0-10.3-3.98-4.23-4.04-4.23-9.65 0-5.55 4.23-9.53 4.29-4.04 10.3-4.04 5.99 0 10.2 4.04 4.29 3.98 4.29 9.53 0 5.62-4.29 9.65-4.23 3.98-10.2 3.98z"/>
   <path d="m576 184 17.8 33.9 18.2-33.9h27.6l-28.1 48.5 28.8 48.5h-27.4l-19.1-33.5-18.8 33.5h-27.8l28.8-48.5-27.8-48.5z"/>
  </g>
  <path d="m1845 85.9-55.2 35a2.42 2.66 0 0 0 0 4.61l55.2 35a7.26 7.98 0 0 0 7.26-1.6e-4l55.2-35a2.42 2.66 0 0 0 0-4.61l-55.2-35a7.26 7.98 0 0 0-7.26-1.1e-5zm-198 42-55.2 35a2.42 2.66 0 0 0 0 4.61l121 77.1a7.26 7.98 0 0 0 7.26 1e-4l55.2-35a2.42 2.66 0 0 0 0-4.61l-121-77.1a7.26 7.98 0 0 0-7.26-3e-5zm136 6.99v69.9a7.26 7.98 0 0 0 3.62 6.92l55.2 35a2.42 2.66 0 0 0 3.62-2.3v-69.9a7.26 7.98 0 0 0-3.62-6.92l-55.2-35a2.42 2.66 0 0 0-3.62 2.3zm129-2.3-55.2 35a7.26 7.98 0 0 0-3.62 6.92v69.9a2.42 2.66 0 0 0 3.62 2.3l55.2-35a7.26 7.98 0 0 0 3.62-6.92v-69.9a2.42 2.66 0 0 0-3.62-2.3zm-327 44.2v69.9a7.26 7.98 0 0 0 3.62 6.92l58.6 37.4a7.26 7.98 0 0 1 3.62 6.92v74.9a7.26 7.98 0 0 0 3.62 6.92l55.2 35a2.42 2.66 0 0 0 3.62-2.3v-154a7.26 7.98 0 0 0-3.62-6.92l-121-77.1a2.42 2.66 0 0 0-3.62 2.3zm194 39.7-55.2 35a7.26 7.98 0 0 0-3.62 6.92v154a2.42 2.66 0 0 0 3.62 2.3l55.2-35a7.26 7.98 0 0 0 3.62-6.92v-154a2.42 2.66 0 0 0-3.62-2.3z" fill="#45979b"/>
  <g aria-label="Efficient progressive component-based Javascript library">
   <path d="m89.1 346v-35.7h21.6v3.84h-17.2v12.1h16.1v3.84h-16.1v12.1h17.5v3.84z"/>
   <path d="m130 319v3.49h-14.5v-3.49zm-10.1 26.8v-30.5q0-2.3 1.08-3.84 1.08-1.54 2.81-2.3 1.73-0.768 3.65-0.768 1.52 0 2.48 0.244t1.43 0.454l-1.19 3.56q-0.314-0.105-0.873-0.262-0.541-0.157-1.43-0.157-2.04 0-2.95 1.03-0.89 1.03-0.89 3.02v29.5z"/>
   <path d="m148 319v3.49h-14.5v-3.49zm-10.1 26.8v-30.5q0-2.3 1.08-3.84 1.08-1.54 2.81-2.3 1.73-0.768 3.65-0.768 1.52 0 2.48 0.244 0.96 0.244 1.43 0.454l-1.19 3.56q-0.314-0.105-0.873-0.262-0.541-0.157-1.43-0.157-2.04 0-2.95 1.03-0.89 1.03-0.89 3.02v29.5z"/>
   <path d="m153 346v-26.8h4.12v26.8zm2.09-31.3q-1.2 0-2.08-0.82-0.855-0.82-0.855-1.97 0-1.15 0.855-1.97 0.873-0.82 2.08-0.82t2.06 0.82q0.873 0.82 0.873 1.97 0 1.15-0.873 1.97-0.855 0.82-2.06 0.82z"/>
   <path d="m176 346q-3.77 0-6.49-1.78-2.72-1.78-4.19-4.9-1.47-3.12-1.47-7.14 0-4.08 1.5-7.21 1.52-3.14 4.22-4.9 2.72-1.78 6.35-1.78 2.83 0 5.1 1.05 2.27 1.05 3.72 2.93 1.45 1.88 1.8 4.4h-4.12q-0.471-1.83-2.09-3.25-1.61-1.43-4.33-1.43-2.41 0-4.22 1.26-1.8 1.24-2.81 3.51-0.995 2.25-0.995 5.29 0 3.11 0.977 5.41 0.995 2.3 2.79 3.58 1.82 1.27 4.26 1.27 1.61 0 2.91-0.559 1.31-0.559 2.22-1.61 0.908-1.05 1.29-2.51h4.12q-0.349 2.37-1.73 4.28-1.36 1.88-3.61 3-2.23 1.1-5.2 1.1z"/>
   <path d="m193 346v-26.8h4.12v26.8zm2.09-31.3q-1.2 0-2.08-0.82-0.855-0.82-0.855-1.97 0-1.15 0.855-1.97 0.873-0.82 2.08-0.82 1.2 0 2.06 0.82 0.873 0.82 0.873 1.97 0 1.15-0.873 1.97-0.855 0.82-2.06 0.82z"/>
   <path d="m215 346q-3.87 0-6.68-1.71-2.79-1.73-4.31-4.82-1.5-3.11-1.5-7.23 0-4.12 1.5-7.26 1.52-3.16 4.22-4.92 2.72-1.78 6.35-1.78 2.09 0 4.14 0.698 2.04 0.698 3.72 2.27 1.68 1.55 2.67 4.12 0.995 2.57 0.995 6.32v1.75h-20.7v-3.56h16.5q0-2.27-0.908-4.05-0.89-1.78-2.55-2.81-1.64-1.03-3.87-1.03-2.46 0-4.26 1.22-1.78 1.2-2.74 3.14-0.96 1.94-0.96 4.15v2.37q0 3.04 1.05 5.15 1.06 2.09 2.95 3.19 1.88 1.08 4.38 1.08 1.62 0 2.93-0.454 1.33-0.471 2.29-1.4 0.96-0.942 1.48-2.34l3.98 1.12q-0.628 2.02-2.11 3.56-1.48 1.52-3.67 2.37-2.18 0.838-4.9 0.838z"/>
   <path d="m237 329v16.1h-4.12v-26.8h3.98v4.19h0.349q0.942-2.04 2.86-3.28 1.92-1.26 4.96-1.26 2.72 0 4.76 1.12 2.04 1.1 3.18 3.35 1.13 2.23 1.13 5.65v17h-4.12v-16.8q0-3.16-1.64-4.92-1.64-1.78-4.5-1.78-1.97 0-3.53 0.855-1.54 0.855-2.43 2.5-0.89 1.64-0.89 3.98z"/>
   <path d="m273 319v3.49h-13.9v-3.49zm-9.84-6.42h4.12v25.6q0 1.75 0.506 2.62 0.524 0.855 1.33 1.15 0.82 0.279 1.73 0.279 0.681 0 1.12-0.0698 0.436-0.0873 0.698-0.14l0.838 3.7q-0.419 0.157-1.17 0.314-0.751 0.175-1.9 0.175-1.75 0-3.42-0.751-1.66-0.75-2.76-2.29-1.08-1.54-1.08-3.87z"/>
   <path d="m293 356v-36.9h3.98v4.26h0.489q0.454-0.698 1.26-1.78 0.82-1.1 2.34-1.95 1.54-0.873 4.15-0.873 3.39 0 5.97 1.69t4.03 4.8 1.45 7.33q0 4.26-1.45 7.38-1.45 3.11-4.01 4.82-2.57 1.69-5.92 1.69-2.58 0-4.14-0.855-1.55-0.873-2.39-1.97-0.838-1.12-1.29-1.85h-0.349v14.2zm4.05-23.5q0 3.04 0.89 5.36 0.89 2.3 2.6 3.61 1.71 1.29 4.19 1.29 2.58 0 4.31-1.36 1.75-1.38 2.62-3.7 0.89-2.34 0.89-5.2 0-2.83-0.873-5.1-0.855-2.29-2.6-3.61-1.73-1.34-4.35-1.34-2.51 0-4.22 1.27-1.71 1.26-2.58 3.53-0.873 2.25-0.873 5.25z"/>
   <path d="m323 346v-26.8h3.98v4.05h0.279q0.733-1.99 2.65-3.23 1.92-1.24 4.33-1.24 0.454 0 1.13 0.0174 0.681 0.0175 1.03 0.0524v4.19q-0.209-0.0524-0.96-0.157-0.733-0.122-1.55-0.122-1.95 0-3.49 0.82-1.52 0.803-2.41 2.23-0.873 1.41-0.873 3.23v17z"/>
   <path d="m352 346q-3.63 0-6.37-1.73-2.72-1.73-4.26-4.83-1.52-3.11-1.52-7.26 0-4.19 1.52-7.31 1.54-3.12 4.26-4.85 2.74-1.73 6.37-1.73t6.35 1.73q2.74 1.73 4.26 4.85 1.54 3.12 1.54 7.31 0 4.15-1.54 7.26-1.52 3.11-4.26 4.83-2.72 1.73-6.35 1.73zm0-3.7q2.76 0 4.54-1.41 1.78-1.41 2.64-3.72 0.855-2.3 0.855-4.99t-0.855-5.01q-0.855-2.32-2.64-3.75-1.78-1.43-4.54-1.43t-4.54 1.43q-1.78 1.43-2.64 3.75-0.855 2.32-0.855 5.01t0.855 4.99q0.855 2.3 2.64 3.72 1.78 1.41 4.54 1.41z"/>
   <path d="m381 356q-2.98 0-5.13-0.768-2.15-0.751-3.58-1.99-1.41-1.22-2.25-2.62l3.28-2.3q0.559 0.733 1.41 1.68 0.855 0.96 2.34 1.66 1.5 0.716 3.93 0.716 3.25 0 5.36-1.57 2.11-1.57 2.11-4.92v-5.45h-0.349q-0.454 0.733-1.29 1.82-0.82 1.06-2.37 1.9-1.54 0.82-4.15 0.82-3.25 0-5.83-1.54-2.57-1.54-4.07-4.47-1.48-2.93-1.48-7.12 0-4.12 1.45-7.17 1.45-3.07 4.03-4.75 2.58-1.69 5.97-1.69 2.62 0 4.15 0.873 1.55 0.855 2.37 1.95 0.838 1.08 1.29 1.78h0.419v-4.26h3.98v27.6q0 3.46-1.57 5.62-1.55 2.18-4.19 3.19-2.62 1.03-5.83 1.03zm-0.14-14.7q2.48 0 4.19-1.13 1.71-1.13 2.6-3.26 0.89-2.13 0.89-5.1 0-2.9-0.873-5.11-0.873-2.22-2.58-3.47-1.71-1.26-4.22-1.26-2.62 0-4.36 1.33-1.73 1.33-2.6 3.56-0.855 2.23-0.855 4.96 0 2.79 0.873 4.94 0.89 2.13 2.62 3.35 1.75 1.2 4.33 1.2z"/>
   <path d="m400 346v-26.8h3.98v4.05h0.279q0.733-1.99 2.65-3.23 1.92-1.24 4.33-1.24 0.454 0 1.13 0.0174 0.681 0.0175 1.03 0.0524v4.19q-0.209-0.0524-0.96-0.157-0.733-0.122-1.55-0.122-1.95 0-3.49 0.82-1.52 0.803-2.41 2.23-0.873 1.41-0.873 3.23v17z"/>
   <path d="m429 346q-3.87 0-6.68-1.71-2.79-1.73-4.31-4.82-1.5-3.11-1.5-7.23 0-4.12 1.5-7.26 1.52-3.16 4.22-4.92 2.72-1.78 6.35-1.78 2.09 0 4.14 0.698 2.04 0.698 3.72 2.27 1.68 1.55 2.67 4.12 0.995 2.57 0.995 6.32v1.75h-20.7v-3.56h16.5q0-2.27-0.908-4.05-0.89-1.78-2.55-2.81-1.64-1.03-3.87-1.03-2.46 0-4.26 1.22-1.78 1.2-2.74 3.14-0.96 1.94-0.96 4.15v2.37q0 3.04 1.05 5.15 1.06 2.09 2.95 3.19 1.88 1.08 4.38 1.08 1.62 0 2.93-0.454 1.33-0.471 2.29-1.4 0.96-0.942 1.48-2.34l3.98 1.12q-0.628 2.02-2.11 3.56-1.48 1.52-3.67 2.37-2.18 0.838-4.9 0.838z"/>
   <path d="m465 325-3.7 1.05q-0.349-0.925-1.03-1.8-0.663-0.89-1.82-1.47t-2.95-0.576q-2.46 0-4.1 1.13-1.62 1.12-1.62 2.84 0 1.54 1.12 2.43t3.49 1.48l3.98 0.977q3.6 0.873 5.36 2.67 1.76 1.78 1.76 4.59 0 2.3-1.33 4.12-1.31 1.82-3.67 2.86-2.36 1.05-5.48 1.05-4.1 0-6.79-1.78-2.69-1.78-3.4-5.2l3.91-0.977q0.559 2.16 2.11 3.25 1.57 1.08 4.1 1.08 2.88 0 4.57-1.22 1.71-1.24 1.71-2.97 0-1.4-0.977-2.34-0.977-0.96-3-1.43l-4.47-1.05q-3.68-0.873-5.41-2.71-1.71-1.85-1.71-4.63 0-2.27 1.27-4.01 1.29-1.75 3.51-2.74 2.23-0.995 5.06-0.995 3.98 0 6.25 1.75 2.29 1.75 3.25 4.61z"/>
   <path d="m491 325-3.7 1.05q-0.349-0.925-1.03-1.8-0.663-0.89-1.82-1.47t-2.95-0.576q-2.46 0-4.1 1.13-1.62 1.12-1.62 2.84 0 1.54 1.12 2.43t3.49 1.48l3.98 0.977q3.6 0.873 5.36 2.67 1.76 1.78 1.76 4.59 0 2.3-1.33 4.12-1.31 1.82-3.67 2.86-2.36 1.05-5.48 1.05-4.1 0-6.79-1.78-2.69-1.78-3.4-5.2l3.91-0.977q0.559 2.16 2.11 3.25 1.57 1.08 4.1 1.08 2.88 0 4.57-1.22 1.71-1.24 1.71-2.97 0-1.4-0.977-2.34-0.977-0.96-3-1.43l-4.47-1.05q-3.68-0.873-5.41-2.71-1.71-1.85-1.71-4.63 0-2.27 1.27-4.01 1.29-1.75 3.51-2.74 2.23-0.995 5.06-0.995 3.98 0 6.25 1.75 2.29 1.75 3.25 4.61z"/>
   <path d="m497 346v-26.8h4.12v26.8zm2.09-31.3q-1.2 0-2.08-0.82-0.855-0.82-0.855-1.97 0-1.15 0.855-1.97 0.873-0.82 2.08-0.82t2.06 0.82q0.873 0.82 0.873 1.97 0 1.15-0.873 1.97-0.855 0.82-2.06 0.82z"/>
   <path d="m531 319-9.91 26.8h-4.19l-9.91-26.8h4.47l7.4 21.4h0.279l7.4-21.4z"/>
   <path d="m547 346q-3.87 0-6.68-1.71-2.79-1.73-4.31-4.82-1.5-3.11-1.5-7.23 0-4.12 1.5-7.26 1.52-3.16 4.22-4.92 2.72-1.78 6.35-1.78 2.09 0 4.14 0.698 2.04 0.698 3.72 2.27 1.68 1.55 2.67 4.12 0.995 2.57 0.995 6.32v1.75h-20.7v-3.56h16.5q0-2.27-0.908-4.05-0.89-1.78-2.55-2.81-1.64-1.03-3.87-1.03-2.46 0-4.26 1.22-1.78 1.2-2.74 3.14-0.96 1.94-0.96 4.15v2.37q0 3.04 1.05 5.15 1.06 2.09 2.95 3.19 1.88 1.08 4.38 1.08 1.62 0 2.93-0.454 1.33-0.471 2.29-1.4 0.96-0.942 1.48-2.34l3.98 1.12q-0.628 2.02-2.11 3.56-1.48 1.52-3.67 2.37-2.18 0.838-4.9 0.838z"/>
   <path d="m589 346q-3.77 0-6.49-1.78-2.72-1.78-4.19-4.9-1.47-3.12-1.47-7.14 0-4.08 1.5-7.21 1.52-3.14 4.22-4.9 2.72-1.78 6.35-1.78 2.83 0 5.1 1.05 2.27 1.05 3.72 2.93 1.45 1.88 1.8 4.4h-4.12q-0.471-1.83-2.09-3.25-1.61-1.43-4.33-1.43-2.41 0-4.22 1.26-1.8 1.24-2.81 3.51-0.995 2.25-0.995 5.29 0 3.11 0.977 5.41 0.995 2.3 2.79 3.58 1.82 1.27 4.26 1.27 1.61 0 2.91-0.559 1.31-0.559 2.22-1.61 0.908-1.05 1.29-2.51h4.12q-0.349 2.37-1.73 4.28-1.36 1.88-3.61 3-2.23 1.1-5.2 1.1z"/>
   <path d="m616 346q-3.63 0-6.37-1.73-2.72-1.73-4.26-4.83-1.52-3.11-1.52-7.26 0-4.19 1.52-7.31 1.54-3.12 4.26-4.85 2.74-1.73 6.37-1.73 3.63 0 6.35 1.73 2.74 1.73 4.26 4.85 1.54 3.12 1.54 7.31 0 4.15-1.54 7.26-1.52 3.11-4.26 4.83-2.72 1.73-6.35 1.73zm0-3.7q2.76 0 4.54-1.41t2.64-3.72q0.855-2.3 0.855-4.99t-0.855-5.01q-0.855-2.32-2.64-3.75-1.78-1.43-4.54-1.43-2.76 0-4.54 1.43-1.78 1.43-2.64 3.75-0.855 2.32-0.855 5.01t0.855 4.99q0.855 2.3 2.64 3.72 1.78 1.41 4.54 1.41z"/>
   <path d="m635 346v-26.8h3.98v4.19h0.349q0.838-2.15 2.71-3.33 1.87-1.2 4.49-1.2 2.65 0 4.42 1.2 1.78 1.19 2.78 3.33h0.279q1.03-2.08 3.09-3.3 2.06-1.24 4.94-1.24 3.6 0 5.88 2.25 2.29 2.23 2.29 6.96v17.9h-4.12v-17.9q0-2.97-1.62-4.24-1.62-1.27-3.82-1.27-2.83 0-4.38 1.71-1.55 1.69-1.55 4.29v17.5h-4.19v-18.4q0-2.29-1.48-3.68-1.48-1.41-3.82-1.41-1.61 0-3 0.855-1.38 0.855-2.23 2.37-0.838 1.5-0.838 3.47v16.8z"/>
   <path d="m677 356v-36.9h3.98v4.26h0.489q0.454-0.698 1.26-1.78 0.82-1.1 2.34-1.95 1.54-0.873 4.15-0.873 3.39 0 5.97 1.69t4.03 4.8q1.45 3.11 1.45 7.33 0 4.26-1.45 7.38-1.45 3.11-4.01 4.82-2.57 1.69-5.92 1.69-2.58 0-4.14-0.855-1.55-0.873-2.39-1.97-0.838-1.12-1.29-1.85h-0.349v14.2zm4.05-23.5q0 3.04 0.89 5.36 0.89 2.3 2.6 3.61 1.71 1.29 4.19 1.29 2.58 0 4.31-1.36 1.75-1.38 2.62-3.7 0.89-2.34 0.89-5.2 0-2.83-0.873-5.1-0.855-2.29-2.6-3.61-1.73-1.34-4.35-1.34-2.51 0-4.22 1.27-1.71 1.26-2.58 3.53-0.873 2.25-0.873 5.25z"/>
   <path d="m718 346q-3.63 0-6.37-1.73-2.72-1.73-4.26-4.83-1.52-3.11-1.52-7.26 0-4.19 1.52-7.31 1.54-3.12 4.26-4.85 2.74-1.73 6.37-1.73 3.63 0 6.35 1.73 2.74 1.73 4.26 4.85 1.54 3.12 1.54 7.31 0 4.15-1.54 7.26-1.52 3.11-4.26 4.83-2.72 1.73-6.35 1.73zm0-3.7q2.76 0 4.54-1.41 1.78-1.41 2.64-3.72 0.855-2.3 0.855-4.99t-0.855-5.01q-0.855-2.32-2.64-3.75-1.78-1.43-4.54-1.43-2.76 0-4.54 1.43-1.78 1.43-2.64 3.75t-0.855 5.01 0.855 4.99q0.855 2.3 2.64 3.72 1.78 1.41 4.54 1.41z"/>
   <path d="m741 329v16.1h-4.12v-26.8h3.98v4.19h0.349q0.942-2.04 2.86-3.28 1.92-1.26 4.96-1.26 2.72 0 4.76 1.12 2.04 1.1 3.18 3.35 1.13 2.23 1.13 5.65v17h-4.12v-16.8q0-3.16-1.64-4.92-1.64-1.78-4.5-1.78-1.97 0-3.53 0.855-1.54 0.855-2.43 2.5-0.89 1.64-0.89 3.98z"/>
   <path d="m777 346q-3.87 0-6.68-1.71-2.79-1.73-4.31-4.82-1.5-3.11-1.5-7.23 0-4.12 1.5-7.26 1.52-3.16 4.22-4.92 2.72-1.78 6.35-1.78 2.09 0 4.14 0.698 2.04 0.698 3.72 2.27 1.68 1.55 2.67 4.12 0.995 2.57 0.995 6.32v1.75h-20.7v-3.56h16.5q0-2.27-0.908-4.05-0.89-1.78-2.55-2.81-1.64-1.03-3.87-1.03-2.46 0-4.26 1.22-1.78 1.2-2.74 3.14t-0.96 4.15v2.37q0 3.04 1.05 5.15 1.06 2.09 2.95 3.19 1.88 1.08 4.38 1.08 1.62 0 2.93-0.454 1.33-0.471 2.29-1.4 0.96-0.942 1.48-2.34l3.98 1.12q-0.628 2.02-2.11 3.56-1.48 1.52-3.67 2.37-2.18 0.838-4.9 0.838z"/>
   <path d="m798 329v16.1h-4.12v-26.8h3.98v4.19h0.349q0.942-2.04 2.86-3.28 1.92-1.26 4.96-1.26 2.72 0 4.76 1.12 2.04 1.1 3.18 3.35 1.13 2.23 1.13 5.65v17h-4.12v-16.8q0-3.16-1.64-4.92-1.64-1.78-4.5-1.78-1.97 0-3.53 0.855-1.54 0.855-2.43 2.5-0.89 1.64-0.89 3.98z"/>
   <path d="m834 319v3.49h-13.9v-3.49zm-9.84-6.42h4.12v25.6q0 1.75 0.506 2.62 0.524 0.855 1.33 1.15 0.82 0.279 1.73 0.279 0.681 0 1.12-0.0698 0.436-0.0873 0.698-0.14l0.838 3.7q-0.419 0.157-1.17 0.314-0.75 0.175-1.9 0.175-1.75 0-3.42-0.751-1.66-0.75-2.76-2.29-1.08-1.54-1.08-3.87z"/>
   <path d="m855 328v3.84h-15.6v-3.84z"/>
   <path d="m863 346v-35.7h4.12v13.2h0.349q0.454-0.698 1.26-1.78 0.82-1.1 2.34-1.95 1.54-0.873 4.15-0.873 3.39 0 5.97 1.69t4.03 4.8q1.45 3.11 1.45 7.33 0 4.26-1.45 7.38-1.45 3.11-4.01 4.82-2.57 1.69-5.92 1.69-2.58 0-4.14-0.855-1.55-0.873-2.39-1.97-0.838-1.12-1.29-1.85h-0.489v4.12zm4.05-13.4q0 3.04 0.89 5.36 0.89 2.3 2.6 3.61 1.71 1.29 4.19 1.29 2.58 0 4.31-1.36 1.75-1.38 2.62-3.7 0.89-2.34 0.89-5.2 0-2.83-0.873-5.1-0.855-2.29-2.6-3.61-1.73-1.34-4.35-1.34-2.51 0-4.22 1.27-1.71 1.26-2.58 3.53-0.873 2.25-0.873 5.25z"/>
   <path d="m901 346q-2.55 0-4.63-0.96-2.08-0.977-3.3-2.81-1.22-1.85-1.22-4.47 0-2.3 0.908-3.74 0.908-1.45 2.43-2.27 1.52-0.82 3.35-1.22 1.85-0.419 3.72-0.663 2.44-0.314 3.96-0.471 1.54-0.175 2.23-0.576 0.716-0.401 0.716-1.4v-0.14q0-2.58-1.41-4.01-1.4-1.43-4.24-1.43-2.95 0-4.63 1.29-1.68 1.29-2.36 2.76l-3.91-1.4q1.05-2.44 2.79-3.8 1.76-1.38 3.84-1.92 2.09-0.559 4.12-0.559 1.29 0 2.97 0.314 1.69 0.297 3.26 1.24 1.59 0.942 2.64 2.84 1.05 1.9 1.05 5.1v17.7h-4.12v-3.63h-0.209q-0.419 0.873-1.4 1.87-0.977 0.995-2.6 1.69t-3.96 0.698zm0.628-3.7q2.44 0 4.12-0.96 1.69-0.96 2.55-2.48 0.873-1.52 0.873-3.19v-3.77q-0.262 0.314-1.15 0.576-0.873 0.244-2.02 0.436-1.13 0.175-2.22 0.314-1.06 0.122-1.73 0.209-1.61 0.209-3 0.681-1.38 0.454-2.23 1.38-0.838 0.908-0.838 2.48 0 2.15 1.59 3.25 1.61 1.08 4.07 1.08z"/>
   <path d="m940 325-3.7 1.05q-0.349-0.925-1.03-1.8-0.663-0.89-1.82-1.47-1.15-0.576-2.95-0.576-2.46 0-4.1 1.13-1.62 1.12-1.62 2.84 0 1.54 1.12 2.43t3.49 1.48l3.98 0.977q3.6 0.873 5.36 2.67 1.76 1.78 1.76 4.59 0 2.3-1.33 4.12-1.31 1.82-3.67 2.86-2.36 1.05-5.48 1.05-4.1 0-6.79-1.78-2.69-1.78-3.4-5.2l3.91-0.977q0.559 2.16 2.11 3.25 1.57 1.08 4.1 1.08 2.88 0 4.57-1.22 1.71-1.24 1.71-2.97 0-1.4-0.977-2.34-0.977-0.96-3-1.43l-4.47-1.05q-3.68-0.873-5.41-2.71-1.71-1.85-1.71-4.63 0-2.27 1.27-4.01 1.29-1.75 3.51-2.74 2.23-0.995 5.06-0.995 3.98 0 6.25 1.75 2.29 1.75 3.25 4.61z"/>
   <path d="m957 346q-3.87 0-6.68-1.71-2.79-1.73-4.31-4.82-1.5-3.11-1.5-7.23 0-4.12 1.5-7.26 1.52-3.16 4.22-4.92 2.72-1.78 6.35-1.78 2.09 0 4.14 0.698 2.04 0.698 3.72 2.27 1.68 1.55 2.67 4.12 0.995 2.57 0.995 6.32v1.75h-20.7v-3.56h16.5q0-2.27-0.908-4.05-0.89-1.78-2.55-2.81-1.64-1.03-3.87-1.03-2.46 0-4.26 1.22-1.78 1.2-2.74 3.14-0.96 1.94-0.96 4.15v2.37q0 3.04 1.05 5.15 1.06 2.09 2.95 3.19 1.88 1.08 4.38 1.08 1.62 0 2.93-0.454 1.33-0.471 2.29-1.4 0.96-0.942 1.48-2.34l3.98 1.12q-0.628 2.02-2.11 3.56-1.48 1.52-3.67 2.37-2.18 0.838-4.9 0.838z"/>
   <path d="m985 346q-3.35 0-5.92-1.69-2.57-1.71-4.01-4.82-1.45-3.12-1.45-7.38 0-4.22 1.45-7.33t4.03-4.8 5.97-1.69q2.62 0 4.14 0.873 1.54 0.855 2.34 1.95 0.82 1.08 1.27 1.78h0.349v-13.2h4.12v35.7h-3.98v-4.12h-0.489q-0.454 0.733-1.29 1.85-0.838 1.1-2.39 1.97-1.55 0.855-4.14 0.855zm0.559-3.7q2.48 0 4.19-1.29 1.71-1.31 2.6-3.61 0.89-2.32 0.89-5.36 0-3-0.873-5.25-0.873-2.27-2.58-3.53-1.71-1.27-4.22-1.27-2.62 0-4.36 1.34-1.73 1.33-2.6 3.61-0.855 2.27-0.855 5.1 0 2.86 0.873 5.2 0.89 2.32 2.62 3.7 1.75 1.36 4.33 1.36z"/>
   <path d="m1033 310h4.33v25.6q0 3.42-1.26 5.81-1.26 2.39-3.54 3.63-2.29 1.24-5.39 1.24-2.93 0-5.22-1.06-2.29-1.08-3.6-3.07-1.31-1.99-1.31-4.73h4.26q0 1.52 0.75 2.65 0.768 1.12 2.09 1.75 1.33 0.628 3.02 0.628 1.87 0 3.18-0.785 1.31-0.785 1.99-2.3 0.698-1.54 0.698-3.75z"/>
   <path d="m1054 346q-2.55 0-4.63-0.96-2.08-0.977-3.3-2.81-1.22-1.85-1.22-4.47 0-2.3 0.908-3.74 0.908-1.45 2.43-2.27 1.52-0.82 3.35-1.22 1.85-0.419 3.72-0.663 2.44-0.314 3.96-0.471 1.54-0.175 2.23-0.576 0.716-0.401 0.716-1.4v-0.14q0-2.58-1.41-4.01-1.4-1.43-4.24-1.43-2.95 0-4.63 1.29-1.68 1.29-2.36 2.76l-3.91-1.4q1.05-2.44 2.79-3.8 1.76-1.38 3.84-1.92 2.09-0.559 4.12-0.559 1.29 0 2.97 0.314 1.69 0.297 3.26 1.24 1.59 0.942 2.64 2.84t1.05 5.1v17.7h-4.12v-3.63h-0.21q-0.419 0.873-1.4 1.87-0.977 0.995-2.6 1.69t-3.96 0.698zm0.628-3.7q2.44 0 4.12-0.96 1.69-0.96 2.55-2.48 0.873-1.52 0.873-3.19v-3.77q-0.262 0.314-1.15 0.576-0.873 0.244-2.02 0.436-1.13 0.175-2.22 0.314-1.06 0.122-1.73 0.209-1.61 0.209-3 0.681-1.38 0.454-2.23 1.38-0.838 0.908-0.838 2.48 0 2.15 1.59 3.25 1.61 1.08 4.07 1.08z"/>
   <path d="m1095 319-9.91 26.8h-4.19l-9.91-26.8h4.47l7.4 21.4h0.279l7.4-21.4z"/>
   <path d="m1107 346q-2.55 0-4.63-0.96-2.08-0.977-3.3-2.81-1.22-1.85-1.22-4.47 0-2.3 0.908-3.74 0.908-1.45 2.43-2.27 1.52-0.82 3.35-1.22 1.85-0.419 3.72-0.663 2.44-0.314 3.96-0.471 1.54-0.175 2.23-0.576 0.716-0.401 0.716-1.4v-0.14q0-2.58-1.41-4.01-1.4-1.43-4.24-1.43-2.95 0-4.63 1.29-1.68 1.29-2.36 2.76l-3.91-1.4q1.05-2.44 2.79-3.8 1.76-1.38 3.84-1.92 2.09-0.559 4.12-0.559 1.29 0 2.97 0.314 1.69 0.297 3.26 1.24 1.59 0.942 2.64 2.84 1.05 1.9 1.05 5.1v17.7h-4.12v-3.63h-0.209q-0.419 0.873-1.4 1.87-0.977 0.995-2.6 1.69t-3.96 0.698zm0.628-3.7q2.44 0 4.12-0.96 1.69-0.96 2.55-2.48 0.873-1.52 0.873-3.19v-3.77q-0.262 0.314-1.15 0.576-0.873 0.244-2.02 0.436-1.13 0.175-2.22 0.314-1.06 0.122-1.73 0.209-1.61 0.209-3 0.681-1.38 0.454-2.23 1.38-0.838 0.908-0.838 2.48 0 2.15 1.59 3.25 1.61 1.08 4.07 1.08z"/>
   <path d="m1146 325-3.7 1.05q-0.349-0.925-1.03-1.8-0.663-0.89-1.82-1.47-1.15-0.576-2.95-0.576-2.46 0-4.1 1.13-1.62 1.12-1.62 2.84 0 1.54 1.12 2.43 1.12 0.89 3.49 1.48l3.98 0.977q3.6 0.873 5.36 2.67 1.76 1.78 1.76 4.59 0 2.3-1.33 4.12-1.31 1.82-3.67 2.86-2.36 1.05-5.48 1.05-4.1 0-6.79-1.78-2.69-1.78-3.4-5.2l3.91-0.977q0.558 2.16 2.11 3.25 1.57 1.08 4.1 1.08 2.88 0 4.57-1.22 1.71-1.24 1.71-2.97 0-1.4-0.978-2.34-0.977-0.96-3-1.43l-4.47-1.05q-3.68-0.873-5.41-2.71-1.71-1.85-1.71-4.63 0-2.27 1.27-4.01 1.29-1.75 3.51-2.74 2.23-0.995 5.06-0.995 3.98 0 6.25 1.75 2.29 1.75 3.25 4.61z"/>
   <path d="m1163 346q-3.77 0-6.49-1.78-2.72-1.78-4.19-4.9-1.47-3.12-1.47-7.14 0-4.08 1.5-7.21 1.52-3.14 4.22-4.9 2.72-1.78 6.35-1.78 2.83 0 5.1 1.05 2.27 1.05 3.72 2.93 1.45 1.88 1.8 4.4h-4.12q-0.471-1.83-2.09-3.25-1.61-1.43-4.33-1.43-2.41 0-4.22 1.26-1.8 1.24-2.81 3.51-0.995 2.25-0.995 5.29 0 3.11 0.977 5.41 0.995 2.3 2.79 3.58 1.82 1.27 4.26 1.27 1.61 0 2.91-0.559 1.31-0.559 2.22-1.61 0.908-1.05 1.29-2.51h4.12q-0.349 2.37-1.73 4.28-1.36 1.88-3.61 3-2.23 1.1-5.2 1.1z"/>
   <path d="m1180 346v-26.8h3.98v4.05h0.279q0.733-1.99 2.65-3.23 1.92-1.24 4.33-1.24 0.454 0 1.13 0.0174 0.681 0.0175 1.03 0.0524v4.19q-0.209-0.0524-0.96-0.157-0.733-0.122-1.55-0.122-1.95 0-3.49 0.82-1.52 0.803-2.41 2.23-0.873 1.41-0.873 3.23v17z"/>
   <path d="m1198 346v-26.8h4.12v26.8zm2.09-31.3q-1.2 0-2.08-0.82-0.855-0.82-0.855-1.97 0-1.15 0.855-1.97 0.873-0.82 2.08-0.82t2.06 0.82q0.873 0.82 0.873 1.97 0 1.15-0.873 1.97-0.855 0.82-2.06 0.82z"/>
   <path d="m1210 356v-36.9h3.98v4.26h0.489q0.454-0.698 1.26-1.78 0.82-1.1 2.34-1.95 1.54-0.873 4.15-0.873 3.39 0 5.97 1.69t4.03 4.8q1.45 3.11 1.45 7.33 0 4.26-1.45 7.38-1.45 3.11-4.01 4.82-2.57 1.69-5.92 1.69-2.58 0-4.14-0.855-1.55-0.873-2.39-1.97-0.838-1.12-1.29-1.85h-0.349v14.2zm4.05-23.5q0 3.04 0.89 5.36 0.89 2.3 2.6 3.61 1.71 1.29 4.19 1.29 2.58 0 4.31-1.36 1.75-1.38 2.62-3.7 0.89-2.34 0.89-5.2 0-2.83-0.873-5.1-0.855-2.29-2.6-3.61-1.73-1.34-4.35-1.34-2.51 0-4.22 1.27-1.71 1.26-2.58 3.53-0.873 2.25-0.873 5.25z"/>
   <path d="m1252 319v3.49h-13.9v-3.49zm-9.84-6.42h4.12v25.6q0 1.75 0.506 2.62 0.524 0.855 1.33 1.15 0.82 0.279 1.73 0.279 0.681 0 1.12-0.0698 0.436-0.0873 0.698-0.14l0.838 3.7q-0.419 0.157-1.17 0.314-0.75 0.175-1.9 0.175-1.75 0-3.42-0.751-1.66-0.75-2.76-2.29-1.08-1.54-1.08-3.87z"/>
   <path d="m1276 310v35.7h-4.12v-35.7z"/>
   <path d="m1283 346v-26.8h4.12v26.8zm2.09-31.3q-1.2 0-2.08-0.82-0.855-0.82-0.855-1.97 0-1.15 0.855-1.97 0.873-0.82 2.08-0.82t2.06 0.82q0.873 0.82 0.873 1.97 0 1.15-0.873 1.97-0.855 0.82-2.06 0.82z"/>
   <path d="m1295 346v-35.7h4.12v13.2h0.349q0.454-0.698 1.26-1.78 0.82-1.1 2.34-1.95 1.54-0.873 4.15-0.873 3.39 0 5.97 1.69 2.58 1.69 4.03 4.8 1.45 3.11 1.45 7.33 0 4.26-1.45 7.38-1.45 3.11-4.01 4.82-2.57 1.69-5.92 1.69-2.58 0-4.14-0.855-1.55-0.873-2.39-1.97-0.838-1.12-1.29-1.85h-0.489v4.12zm4.05-13.4q0 3.04 0.89 5.36 0.89 2.3 2.6 3.61 1.71 1.29 4.19 1.29 2.58 0 4.31-1.36 1.75-1.38 2.62-3.7 0.89-2.34 0.89-5.2 0-2.83-0.873-5.1-0.855-2.29-2.6-3.61-1.73-1.34-4.35-1.34-2.51 0-4.22 1.27-1.71 1.26-2.58 3.53-0.873 2.25-0.873 5.25z"/>
   <path d="m1325 346v-26.8h3.98v4.05h0.279q0.733-1.99 2.65-3.23 1.92-1.24 4.33-1.24 0.454 0 1.13 0.0174 0.681 0.0175 1.03 0.0524v4.19q-0.21-0.0524-0.96-0.157-0.733-0.122-1.55-0.122-1.95 0-3.49 0.82-1.52 0.803-2.41 2.23-0.873 1.41-0.873 3.23v17z"/>
   <path d="m1352 346q-2.55 0-4.63-0.96-2.08-0.977-3.3-2.81-1.22-1.85-1.22-4.47 0-2.3 0.908-3.74 0.908-1.45 2.43-2.27 1.52-0.82 3.35-1.22 1.85-0.419 3.72-0.663 2.44-0.314 3.96-0.471 1.54-0.175 2.23-0.576 0.716-0.401 0.716-1.4v-0.14q0-2.58-1.41-4.01-1.4-1.43-4.24-1.43-2.95 0-4.63 1.29-1.68 1.29-2.36 2.76l-3.91-1.4q1.05-2.44 2.79-3.8 1.76-1.38 3.84-1.92 2.09-0.559 4.12-0.559 1.29 0 2.97 0.314 1.69 0.297 3.26 1.24 1.59 0.942 2.64 2.84t1.05 5.1v17.7h-4.12v-3.63h-0.21q-0.419 0.873-1.4 1.87-0.977 0.995-2.6 1.69-1.62 0.698-3.96 0.698zm0.628-3.7q2.44 0 4.12-0.96 1.69-0.96 2.55-2.48 0.873-1.52 0.873-3.19v-3.77q-0.262 0.314-1.15 0.576-0.873 0.244-2.02 0.436-1.13 0.175-2.22 0.314-1.06 0.122-1.73 0.209-1.61 0.209-3 0.681-1.38 0.454-2.23 1.38-0.838 0.908-0.838 2.48 0 2.15 1.59 3.25 1.61 1.08 4.07 1.08z"/>
   <path d="m1371 346v-26.8h3.98v4.05h0.279q0.733-1.99 2.65-3.23 1.92-1.24 4.33-1.24 0.454 0 1.13 0.0174 0.681 0.0175 1.03 0.0524v4.19q-0.209-0.0524-0.96-0.157-0.733-0.122-1.55-0.122-1.95 0-3.49 0.82-1.52 0.803-2.41 2.23-0.873 1.41-0.873 3.23v17z"/>
   <path d="m1393 356q-1.05 0-1.87-0.175-0.82-0.157-1.13-0.314l1.05-3.63q1.5 0.384 2.65 0.279 1.15-0.105 2.04-1.03 0.908-0.908 1.66-2.95l0.768-2.09-9.91-26.9h4.47l7.4 21.4h0.279l7.4-21.4h4.47l-11.4 30.7q-0.768 2.08-1.9 3.44-1.13 1.38-2.64 2.04-1.48 0.663-3.35 0.663z"/>
  </g>
 </g>
</svg>
