<?xml version="1.0" encoding="UTF-8"?>
<!-- Created with Inkscape (http://www.inkscape.org/) -->
<svg width="1e3" height="250" version="1.1" xmlns="http://www.w3.org/2000/svg">
 <path d="m922.55 42.974-27.599 17.505a1.2079 1.3289 0 0 0 0 2.3062l27.599 17.505a3.6295 3.9887 0 0 0 3.6295-8e-5l27.599-17.505a1.2079 1.3289 0 0 0 0-2.3062l-27.599-17.505a3.6295 3.9887 0 0 0-3.6295-5e-6zm-99.055 20.983-27.599 17.505a1.2079 1.3289 0 0 0 0 2.3062l60.491 38.563a3.6295 3.9887 0 0 0 3.6295 5e-5l27.599-17.505a1.2079 1.3289 0 0 0 0-2.3062l-60.491-38.563a3.6295 3.9887 0 0 0-3.6295-1.5e-5zm67.864 3.4972v34.972a3.6295 3.9887 0 0 0 1.811 3.4594l27.599 17.505a1.2079 1.3289 0 0 0 1.811-1.1512v-34.972a3.6295 3.9887 0 0 0-1.811-3.4594l-27.599-17.505a1.2079 1.3289 0 0 0-1.811 1.1512zm64.272-1.1493-27.599 17.505a3.6295 3.9887 0 0 0-1.811 3.4594v34.972a1.2079 1.3289 0 0 0 1.811 1.1512l27.599-17.505a3.6295 3.9887 0 0 0 1.811-3.4594v-34.972a1.2079 1.3289 0 0 0-1.811-1.1512zm-163.33 22.117v34.972a3.6295 3.9887 0 0 0 1.811 3.4594l29.301 18.677a3.6295 3.9887 0 0 1 1.811 3.4594v37.429a3.6295 3.9887 0 0 0 1.811 3.4594l27.599 17.505a1.2079 1.3289 0 0 0 1.811-1.1512v-76.938a3.6295 3.9887 0 0 0-1.811-3.4594l-60.492-38.563a1.2079 1.3289 0 0 0-1.811 1.1512zm97.164 19.849-27.599 17.505a3.6295 3.9887 0 0 0-1.811 3.4594v76.938a1.2079 1.3289 0 0 0 1.811 1.1512l27.599-17.505a3.6295 3.9887 0 0 0 1.811-3.4594v-76.938a1.2079 1.3289 0 0 0-1.811-1.1512z" fill="#3771c8"/>
 <g aria-label="Debrix" fill="#0a0a0a">
  <path d="m65.461 140.36h-22.906v-64.616h23.095q9.7492 0 16.785 3.8807 7.0358 3.8492 10.822 11.074 3.8176 7.2251 3.8176 17.29 0 10.096-3.8176 17.353-3.7861 7.2567-10.885 11.137-7.0674 3.8808-16.911 3.8808zm-9.2444-11.705h8.6765q6.0578 0 10.191-2.1454 4.1647-2.177 6.2471-6.7203 2.1139-4.5749 2.1139-11.8 0-7.162-2.1139-11.705-2.0824-4.5433-6.2155-6.6888-4.1332-2.1455-10.191-2.1455h-8.708z"/>
  <path d="m129 141.3q-7.4775 0-12.873-3.0289-5.3636-3.0604-8.2663-8.6449-2.9027-5.616-2.9027-13.283 0-7.4775 2.9027-13.125t8.1716-8.8027q5.3005-3.1551 12.431-3.1551 4.7957 0 8.9289 1.546 4.1647 1.5144 7.2567 4.5749 3.1235 3.0604 4.8588 7.6984 1.7353 4.6064 1.7353 10.79v3.6914h-40.921v-8.3294h28.27q0-2.9027-1.262-5.1428t-3.5021-3.5021q-2.2086-1.2936-5.1428-1.2936-3.0604 0-5.4267 1.4198-2.3348 1.3882-3.6599 3.7545-1.3251 2.3348-1.3567 5.2059v7.9192q0 3.5968 1.3251 6.2155 1.3567 2.6187 3.8176 4.0385 2.461 1.4198 5.8369 1.4198 2.2401 0 4.1016-0.63101 1.8615-0.63102 3.1866-1.893t2.0192-3.092l12.431 0.82032q-0.94653 4.4802-3.8808 7.8246-2.9027 3.3128-7.5091 5.1743-4.5749 1.8299-10.57 1.8299z"/>
  <path d="m160.27 140.36v-64.616h13.441v24.294h0.41016q0.88342-1.9561 2.5556-3.9754 1.7037-2.0508 4.4171-3.4075 2.7449-1.3882 6.815-1.3882 5.3005 0 9.7807 2.7765 4.4802 2.7449 7.162 8.2979 2.6818 5.5214 2.6818 13.851 0 8.1086-2.6187 13.693-2.5872 5.5529-7.0674 8.4241-4.4487 2.8396-9.97 2.8396-3.9123 0-6.6572-1.2936-2.7134-1.2936-4.4487-3.2497-1.7353-1.9877-2.6503-4.007h-0.59947v7.7615zm13.157-24.231q0 4.3225 1.1989 7.5406t3.4706 5.0166q2.2717 1.7668 5.5214 1.7668 3.2813 0 5.5529-1.7984 2.2717-1.83 3.439-5.0481 1.1989-3.2497 1.1989-7.4775 0-4.1962-1.1674-7.3829-1.1674-3.1866-3.439-4.985-2.2717-1.7984-5.5845-1.7984-3.2813 0-5.5529 1.7353-2.2401 1.7353-3.439 4.9219t-1.1989 7.5091z"/>
  <path d="m216.46 140.36v-48.462h13.03v8.4556h0.50481q1.3251-4.5118 4.4487-6.815 3.1235-2.3348 7.1936-2.3348 1.0096 0 2.177 0.1262t2.0508 0.34706v11.926q-0.94652-0.28396-2.6187-0.50481-1.6722-0.22086-3.0604-0.22086-2.9658 0-5.3005 1.2936-2.3032 1.262-3.6599 3.5337-1.3251 2.2717-1.3251 5.2374v27.418z"/>
  <path d="m252.78 140.36v-48.462h13.441v48.462zm6.7519-54.709q-2.9973 0-5.1428-1.9877-2.1139-2.0192-2.1139-4.8273 0-2.7765 2.1139-4.7642 2.1454-2.0192 5.1428-2.0192 2.9973 0 5.1112 2.0192 2.1455 1.9877 2.1455 4.7642 0 2.808-2.1455 4.8273-2.1139 1.9877-5.1112 1.9877z"/>
  <path d="m288.18 91.893 8.8973 16.943 9.1182-16.943h13.788l-14.04 24.231 14.419 24.231h-13.725l-9.5599-16.753-9.4021 16.753h-13.882l14.387-24.231-13.882-24.231z"/>
 </g>
 <g aria-label="Efficient progressive component-based Javascript library" fill="#0a0a0a">
  <path d="m44.566 172.8v-17.872h10.786v1.9199h-8.6221v6.0389h8.0635v1.9199h-8.0635v6.0738h8.7617v1.9199z"/>
  <path d="m64.952 159.4v1.7454h-7.2258v-1.7454zm-5.0615 13.404v-15.254q0-1.1519 0.54106-1.9199 0.54106-0.76796 1.405-1.1519t1.8239-0.38398q0.75923 0 1.2392 0.12218 0.47997 0.12217 0.7156 0.2269l-0.59342 1.7803q-0.15708-0.0524-0.43634-0.1309-0.27053-0.0785-0.7156-0.0785-1.021 0-1.4748 0.51488-0.44506 0.51488-0.44506 1.5097v14.766z"/>
  <path d="m73.819 159.4v1.7454h-7.2258v-1.7454zm-5.0615 13.404v-15.254q0-1.1519 0.54106-1.9199 0.54106-0.76796 1.405-1.1519t1.8239-0.38398q0.75923 0 1.2392 0.12218 0.47997 0.12217 0.7156 0.2269l-0.59342 1.7803q-0.15708-0.0524-0.43634-0.1309-0.27053-0.0785-0.7156-0.0785-1.021 0-1.4748 0.51488-0.44506 0.51488-0.44506 1.5097v14.766z"/>
  <path d="m76.716 172.8v-13.404h2.0595v13.404zm1.0472-15.638q-0.60215 0-1.0385-0.41016-0.42761-0.41016-0.42761-0.98612 0-0.57597 0.42761-0.98613 0.43634-0.41016 1.0385-0.41016 0.60215 0 1.0298 0.41016 0.43634 0.41016 0.43634 0.98613 0 0.57596-0.43634 0.98612-0.42761 0.41016-1.0298 0.41016z"/>
  <path d="m87.991 173.08q-1.885 0-3.2464-0.89013t-2.0944-2.4522q-0.73305-1.5621-0.73305-3.5692 0-2.0421 0.7505-3.6042 0.75923-1.5708 2.1119-2.4522 1.3614-0.89013 3.1765-0.89013 1.4137 0 2.5482 0.52361 1.1345 0.5236 1.8588 1.4661 0.72432 0.9425 0.89886 2.1992h-2.0595q-0.23562-0.91631-1.0472-1.6232-0.80286-0.71559-2.1642-0.71559-1.2043 0-2.1119 0.62832-0.89886 0.6196-1.405 1.7541-0.49743 1.1258-0.49743 2.6442 0 1.5534 0.4887 2.7053 0.49743 1.1519 1.3963 1.789 0.90758 0.63705 2.1293 0.63705 0.80286 0 1.4574-0.27925 0.65451-0.27926 1.1083-0.80287 0.45379-0.5236 0.64578-1.2566h2.0595q-0.17454 1.1868-0.86395 2.1381-0.68069 0.94249-1.8064 1.501-1.117 0.54979-2.6006 0.54979z"/>
  <path d="m96.264 172.8v-13.404h2.0595v13.404zm1.0472-15.638q-0.60215 0-1.0385-0.41016-0.42761-0.41016-0.42761-0.98612 0-0.57597 0.42761-0.98613 0.43634-0.41016 1.0385-0.41016 0.60215 0 1.0298 0.41016 0.43634 0.41016 0.43634 0.98613 0 0.57596-0.43634 0.98612-0.42761 0.41016-1.0298 0.41016z"/>
  <path d="m107.71 173.08q-1.9373 0-3.3424-0.85523-1.3963-0.86395-2.1555-2.4086-0.7505-1.5534-0.7505-3.6129t0.7505-3.6303q0.75923-1.5796 2.1119-2.461 1.3614-0.89013 3.1766-0.89013 1.0472 0 2.0682 0.34907t1.8588 1.1345q0.83777 0.77668 1.3352 2.0595 0.49743 1.2828 0.49743 3.1591v0.87268h-10.332v-1.7803h8.2381q0-1.1345-0.45379-2.0246-0.44506-0.89013-1.2741-1.405-0.82031-0.51488-1.9373-0.51488-1.2305 0-2.1293 0.61087-0.89014 0.60215-1.3701 1.5708t-0.47997 2.077v1.1868q0 1.5185 0.52361 2.5744 0.53233 1.0472 1.4748 1.597 0.94249 0.54106 2.1904 0.54106 0.81159 0 1.4661-0.22689 0.66323-0.23563 1.1432-0.69815 0.47997-0.47124 0.74177-1.1694l1.9897 0.55851q-0.31417 1.0123-1.0559 1.7803-0.74178 0.75923-1.8326 1.1868-1.0908 0.41889-2.4522 0.41889z"/>
  <path d="m118.46 164.74v8.0635h-2.0595v-13.404h1.9897v2.0944h0.17453q0.47125-1.021 1.4312-1.6406 0.95995-0.62833 2.4784-0.62833 1.3614 0 2.3824 0.55851 1.021 0.54979 1.5883 1.6755 0.56724 1.117 0.56724 2.8275v8.5173h-2.0595v-8.3777q0-1.5796-0.82031-2.461-0.82032-0.89013-2.2515-0.89013-0.98613 0-1.7628 0.42761-0.76796 0.42761-1.213 1.2479-0.44507 0.82031-0.44507 1.9897z"/>
  <path d="m136.62 159.4v1.7454h-6.9465v-1.7454zm-4.9219-3.2114h2.0595v12.776q0 0.87268 0.25308 1.309 0.2618 0.42761 0.66323 0.57596 0.41016 0.13963 0.86395 0.13963 0.34035 0 0.55852-0.0349 0.21817-0.0436 0.34907-0.0698l0.41888 1.8501q-0.20944 0.0785-0.58469 0.15708-0.37525 0.0873-0.95122 0.0873-0.87268 0-1.7104-0.37525-0.82904-0.37526-1.3788-1.1432-0.54106-0.76796-0.54106-1.9374z"/>
  <path d="m146.63 177.83v-18.431h1.9897v2.1293h0.24435q0.22689-0.34907 0.62833-0.89013 0.41015-0.54979 1.1694-0.9774 0.76796-0.43634 2.077-0.43634 1.693 0 2.9846 0.8465 1.2916 0.84649 2.0159 2.3999t0.72432 3.6652q0 2.1293-0.72432 3.6914-0.72432 1.5534-2.0072 2.4086-1.2828 0.8465-2.9584 0.8465-1.2916 0-2.0682-0.42761-0.77669-0.43634-1.1956-0.98613-0.41889-0.55851-0.64578-0.92504h-0.17454v7.0861zm2.0246-11.729q0 1.5185 0.44506 2.6791 0.44507 1.1519 1.3003 1.8064 0.85522 0.64578 2.0944 0.64578 1.2916 0 2.1555-0.68069 0.87268-0.68941 1.309-1.8501 0.44506-1.1694 0.44506-2.6006 0-1.4137-0.43634-2.5482-0.42761-1.1432-1.3003-1.8064-0.86395-0.67196-2.173-0.67196-1.2567 0-2.1119 0.63705-0.85523 0.62833-1.2916 1.7628-0.43633 1.1258-0.43633 2.6268z"/>
  <path d="m161.61 172.8v-13.404h1.9897v2.0246h0.13963q0.36652-0.99486 1.3265-1.6145t2.1642-0.6196q0.2269 0 0.56724 9e-3 0.34035 9e-3 0.51488 0.0262v2.0944q-0.10472-0.0262-0.47997-0.0785-0.36653-0.0611-0.77668-0.0611-0.9774 0-1.7454 0.41016-0.75923 0.40143-1.2043 1.117-0.43633 0.70687-0.43633 1.6145v8.4824z"/>
  <path d="m175.78 173.08q-1.8152 0-3.1853-0.86395-1.3614-0.86395-2.1293-2.4173-0.75923-1.5534-0.75923-3.6303 0-2.0944 0.75923-3.6565 0.76796-1.5621 2.1293-2.426 1.3701-0.86395 3.1853-0.86395t3.1766 0.86395q1.3701 0.86395 2.1293 2.426 0.76795 1.5621 0.76795 3.6565 0 2.077-0.76795 3.6303-0.75923 1.5534-2.1293 2.4173-1.3614 0.86395-3.1766 0.86395zm0-1.8501q1.3788 0 2.269-0.70687t1.3177-1.8588q0.42762-1.1519 0.42762-2.4959 0-1.3439-0.42762-2.5046-0.42761-1.1607-1.3177-1.8763-0.89013-0.71559-2.269-0.71559t-2.269 0.71559q-0.89013 0.7156-1.3178 1.8763-0.42761 1.1607-0.42761 2.5046t0.42761 2.4959q0.42762 1.1519 1.3178 1.8588t2.269 0.70687z"/>
  <path d="m190.41 178.11q-1.4923 0-2.5657-0.38398-1.0734-0.37525-1.789-0.99485-0.70687-0.61087-1.1258-1.309l1.6406-1.1519q0.27925 0.36652 0.70687 0.83777 0.42761 0.47997 1.1694 0.82904 0.75051 0.3578 1.9635 0.3578 1.6232 0 2.6791-0.78541t1.0559-2.461v-2.7228h-0.17454q-0.22689 0.36652-0.64578 0.90758-0.41016 0.53234-1.1868 0.95122-0.76796 0.41016-2.077 0.41016-1.6232 0-2.9147-0.76796-1.2828-0.76795-2.0333-2.234-0.74178-1.4661-0.74178-3.5605 0-2.0595 0.72432-3.5867 0.72433-1.5359 2.0159-2.3737 1.2916-0.8465 2.9846-0.8465 1.309 0 2.077 0.43634 0.77668 0.42761 1.1868 0.9774 0.41888 0.54106 0.64578 0.89013h0.20944v-2.1293h1.9897v13.788q0 1.7279-0.78541 2.81-0.77668 1.0908-2.0944 1.597-1.309 0.51488-2.9147 0.51488zm-0.0698-7.3654q1.2392 0 2.0944-0.56724 0.85523-0.56724 1.3003-1.6319 0.44507-1.0647 0.44507-2.5482 0-1.4486-0.43634-2.557t-1.2916-1.7366q-0.85522-0.62832-2.1119-0.62832-1.309 0-2.1817 0.66323-0.86395 0.66324-1.3003 1.7803-0.42761 1.117-0.42761 2.4784 0 1.3963 0.43634 2.4697 0.44506 1.0647 1.309 1.6756 0.87268 0.60214 2.1642 0.60214z"/>
  <path d="m199.97 172.8v-13.404h1.9897v2.0246h0.13963q0.36652-0.99486 1.3265-1.6145t2.1642-0.6196q0.2269 0 0.56724 9e-3 0.34035 9e-3 0.51488 0.0262v2.0944q-0.10472-0.0262-0.47997-0.0785-0.36653-0.0611-0.77669-0.0611-0.97739 0-1.7454 0.41016-0.75923 0.40143-1.2043 1.117-0.43633 0.70687-0.43633 1.6145v8.4824z"/>
  <path d="m214.32 173.08q-1.9374 0-3.3424-0.85523-1.3963-0.86395-2.1555-2.4086-0.7505-1.5534-0.7505-3.6129t0.7505-3.6303q0.75923-1.5796 2.1119-2.461 1.3614-0.89013 3.1765-0.89013 1.0472 0 2.0682 0.34907t1.8588 1.1345q0.83777 0.77668 1.3352 2.0595t0.49743 3.1591v0.87268h-10.333v-1.7803h8.2381q0-1.1345-0.45379-2.0246-0.44507-0.89013-1.2741-1.405-0.82032-0.51488-1.9374-0.51488-1.2305 0-2.1293 0.61087-0.89013 0.60215-1.3701 1.5708-0.47998 0.96867-0.47998 2.077v1.1868q0 1.5185 0.52361 2.5744 0.53233 1.0472 1.4748 1.597 0.94249 0.54106 2.1904 0.54106 0.81159 0 1.4661-0.22689 0.66324-0.23563 1.1432-0.69815 0.47998-0.47124 0.74178-1.1694l1.9897 0.55851q-0.31416 1.0123-1.0559 1.7803-0.74177 0.75923-1.8326 1.1868-1.0908 0.41889-2.4522 0.41889z"/>
  <path d="m232.51 162.4-1.8501 0.5236q-0.17453-0.46252-0.51488-0.89886-0.33161-0.44506-0.90758-0.73305-0.57597-0.28798-1.4748-0.28798-1.2305 0-2.0508 0.56724-0.81159 0.55852-0.81159 1.4225 0 0.76795 0.55852 1.213 0.55851 0.44506 1.7454 0.74177l1.9897 0.4887q1.7977 0.43634 2.6791 1.3352 0.8814 0.89013 0.8814 2.2951 0 1.1519-0.66324 2.0595-0.6545 0.90759-1.8326 1.4312t-2.7402 0.52361q-2.0508 0-3.3947-0.89013t-1.7017-2.6006l1.9548-0.4887q0.27926 1.0821 1.0559 1.6232 0.78541 0.54106 2.0508 0.54106 1.4399 0 2.2864-0.61087 0.85523-0.61961 0.85523-1.4836 0-0.69814-0.4887-1.1694-0.4887-0.47998-1.501-0.7156l-2.234-0.52361q-1.8414-0.43634-2.7053-1.3526-0.85523-0.92504-0.85523-2.3126 0-1.1345 0.63706-2.0072 0.64578-0.87268 1.7541-1.3701 1.117-0.49743 2.5308-0.49743 1.9897 0 3.1242 0.87268 1.1432 0.87267 1.6232 2.3039z"/>
  <path d="m245.35 162.4-1.8501 0.5236q-0.17453-0.46252-0.51488-0.89886-0.33161-0.44506-0.90758-0.73305-0.57597-0.28798-1.4748-0.28798-1.2305 0-2.0508 0.56724-0.81159 0.55852-0.81159 1.4225 0 0.76795 0.55852 1.213 0.55851 0.44506 1.7454 0.74177l1.9897 0.4887q1.7977 0.43634 2.6791 1.3352 0.8814 0.89013 0.8814 2.2951 0 1.1519-0.66323 2.0595-0.65451 0.90759-1.8326 1.4312-1.1781 0.52361-2.7402 0.52361-2.0508 0-3.3947-0.89013t-1.7017-2.6006l1.9548-0.4887q0.27925 1.0821 1.0559 1.6232 0.78541 0.54106 2.0508 0.54106 1.4399 0 2.2864-0.61087 0.85523-0.61961 0.85523-1.4836 0-0.69814-0.4887-1.1694-0.4887-0.47998-1.501-0.7156l-2.234-0.52361q-1.8414-0.43634-2.7053-1.3526-0.85523-0.92504-0.85523-2.3126 0-1.1345 0.63706-2.0072 0.64578-0.87268 1.7541-1.3701 1.117-0.49743 2.5308-0.49743 1.9897 0 3.1242 0.87268 1.1432 0.87267 1.6232 2.3039z"/>
  <path d="m248.7 172.8v-13.404h2.0595v13.404zm1.0472-15.638q-0.60215 0-1.0385-0.41016-0.42761-0.41016-0.42761-0.98612 0-0.57597 0.42761-0.98613 0.43634-0.41016 1.0385-0.41016 0.60214 0 1.0298 0.41016 0.43634 0.41016 0.43634 0.98613 0 0.57596-0.43634 0.98612-0.42762 0.41016-1.0298 0.41016z"/>
  <path d="m265.49 159.4-4.9568 13.404h-2.0944l-4.9568-13.404h2.234l3.7002 10.682h0.13962l3.7002-10.682z"/>
  <path d="m273.35 173.08q-1.9373 0-3.3424-0.85523-1.3963-0.86395-2.1555-2.4086-0.7505-1.5534-0.7505-3.6129t0.7505-3.6303q0.75923-1.5796 2.1119-2.461 1.3614-0.89013 3.1766-0.89013 1.0472 0 2.0682 0.34907t1.8588 1.1345q0.83777 0.77668 1.3352 2.0595 0.49743 1.2828 0.49743 3.1591v0.87268h-10.332v-1.7803h8.2381q0-1.1345-0.45379-2.0246-0.44506-0.89013-1.2741-1.405-0.82032-0.51488-1.9373-0.51488-1.2305 0-2.1293 0.61087-0.89013 0.60215-1.3701 1.5708t-0.47997 2.077v1.1868q0 1.5185 0.5236 2.5744 0.53234 1.0472 1.4748 1.597 0.94249 0.54106 2.1904 0.54106 0.81159 0 1.4661-0.22689 0.66323-0.23563 1.1432-0.69815 0.47997-0.47124 0.74177-1.1694l1.9897 0.55851q-0.31417 1.0123-1.0559 1.7803-0.74178 0.75923-1.8326 1.1868-1.0908 0.41889-2.4522 0.41889z"/>
  <path d="m294.4 173.08q-1.885 0-3.2464-0.89013t-2.0944-2.4522q-0.73305-1.5621-0.73305-3.5692 0-2.0421 0.7505-3.6042 0.75923-1.5708 2.1119-2.4522 1.3614-0.89013 3.1766-0.89013 1.4137 0 2.5482 0.52361 1.1345 0.5236 1.8588 1.4661 0.72432 0.9425 0.89886 2.1992h-2.0595q-0.23562-0.91631-1.0472-1.6232-0.80287-0.71559-2.1642-0.71559-1.2043 0-2.1119 0.62832-0.89886 0.6196-1.405 1.7541-0.49742 1.1258-0.49742 2.6442 0 1.5534 0.4887 2.7053 0.49742 1.1519 1.3963 1.789 0.90759 0.63705 2.1293 0.63705 0.80286 0 1.4574-0.27925 0.65451-0.27926 1.1083-0.80287 0.45379-0.5236 0.64578-1.2566h2.0595q-0.17454 1.1868-0.86395 2.1381-0.68069 0.94249-1.8064 1.501-1.117 0.54979-2.6006 0.54979z"/>
  <path d="m308.12 173.08q-1.8152 0-3.1853-0.86395-1.3614-0.86395-2.1293-2.4173-0.75923-1.5534-0.75923-3.6303 0-2.0944 0.75923-3.6565 0.76796-1.5621 2.1293-2.426 1.3701-0.86395 3.1853-0.86395t3.1765 0.86395q1.3701 0.86395 2.1293 2.426 0.76795 1.5621 0.76795 3.6565 0 2.077-0.76795 3.6303-0.75923 1.5534-2.1293 2.4173-1.3614 0.86395-3.1765 0.86395zm0-1.8501q1.3788 0 2.269-0.70687t1.3177-1.8588 0.42761-2.4959q0-1.3439-0.42761-2.5046t-1.3177-1.8763q-0.89013-0.71559-2.269-0.71559t-2.269 0.71559q-0.89013 0.7156-1.3177 1.8763t-0.42761 2.5046q0 1.3439 0.42761 2.4959t1.3177 1.8588q0.89014 0.70687 2.269 0.70687z"/>
  <path d="m317.33 172.8v-13.404h1.9897v2.0944h0.17454q0.41888-1.0734 1.3526-1.6668 0.93376-0.60215 2.2428-0.60215 1.3265 0 2.2079 0.60215 0.89014 0.59342 1.3876 1.6668h0.13963q0.51488-1.0385 1.5446-1.6494 1.0298-0.6196 2.4697-0.6196 1.7977 0 2.9409 1.1258 1.1432 1.117 1.1432 3.482v8.9711h-2.0595v-8.9711q0-1.4836-0.81159-2.1206t-1.9112-0.63705q-1.4137 0-2.1904 0.85522-0.77668 0.8465-0.77668 2.1468v8.7268h-2.0944v-9.1806q0-1.1432-0.74177-1.8414-0.74178-0.70686-1.9112-0.70686-0.80287 0-1.501 0.42761-0.68942 0.42761-1.117 1.1868-0.41888 0.7505-0.41888 1.7366v8.3777z"/>
  <path d="m338.69 177.83v-18.431h1.9897v2.1293h0.24435q0.2269-0.34907 0.62833-0.89013 0.41016-0.54979 1.1694-0.9774 0.76795-0.43634 2.077-0.43634 1.693 0 2.9846 0.8465 1.2916 0.84649 2.0159 2.3999t0.72432 3.6652q0 2.1293-0.72432 3.6914-0.72432 1.5534-2.0072 2.4086-1.2828 0.8465-2.9584 0.8465-1.2916 0-2.0682-0.42761-0.77668-0.43634-1.1956-0.98613-0.41888-0.55851-0.64578-0.92504h-0.17453v7.0861zm2.0246-11.729q0 1.5185 0.44506 2.6791 0.44507 1.1519 1.3003 1.8064 0.85523 0.64578 2.0944 0.64578 1.2916 0 2.1555-0.68069 0.87268-0.68941 1.309-1.8501 0.44507-1.1694 0.44507-2.6006 0-1.4137-0.43634-2.5482-0.42762-1.1432-1.3003-1.8064-0.86395-0.67196-2.173-0.67196-1.2567 0-2.1119 0.63705-0.85522 0.62833-1.2916 1.7628-0.43634 1.1258-0.43634 2.6268z"/>
  <path d="m359.11 173.08q-1.8152 0-3.1853-0.86395-1.3614-0.86395-2.1293-2.4173-0.75923-1.5534-0.75923-3.6303 0-2.0944 0.75923-3.6565 0.76795-1.5621 2.1293-2.426 1.3701-0.86395 3.1853-0.86395t3.1766 0.86395q1.3701 0.86395 2.1293 2.426 0.76796 1.5621 0.76796 3.6565 0 2.077-0.76796 3.6303-0.75923 1.5534-2.1293 2.4173-1.3614 0.86395-3.1766 0.86395zm0-1.8501q1.3788 0 2.269-0.70687 0.89013-0.70687 1.3177-1.8588t0.42761-2.4959q0-1.3439-0.42761-2.5046t-1.3177-1.8763q-0.89014-0.71559-2.269-0.71559t-2.269 0.71559q-0.89013 0.7156-1.3177 1.8763t-0.42761 2.5046q0 1.3439 0.42761 2.4959t1.3177 1.8588 2.269 0.70687z"/>
  <path d="m370.39 164.74v8.0635h-2.0595v-13.404h1.9897v2.0944h0.17454q0.47124-1.021 1.4312-1.6406 0.95994-0.62833 2.4784-0.62833 1.3614 0 2.3824 0.55851 1.021 0.54979 1.5883 1.6755 0.56724 1.117 0.56724 2.8275v8.5173h-2.0595v-8.3777q0-1.5796-0.82032-2.461-0.82032-0.89013-2.2515-0.89013-0.98613 0-1.7628 0.42761-0.76795 0.42761-1.213 1.2479-0.44507 0.82031-0.44507 1.9897z"/>
  <path d="m388.33 173.08q-1.9373 0-3.3424-0.85523-1.3963-0.86395-2.1555-2.4086-0.7505-1.5534-0.7505-3.6129t0.7505-3.6303q0.75923-1.5796 2.1119-2.461 1.3614-0.89013 3.1766-0.89013 1.0472 0 2.0682 0.34907t1.8588 1.1345q0.83777 0.77668 1.3352 2.0595 0.49742 1.2828 0.49742 3.1591v0.87268h-10.332v-1.7803h8.2381q0-1.1345-0.4538-2.0246-0.44506-0.89013-1.2741-1.405-0.82031-0.51488-1.9373-0.51488-1.2305 0-2.1293 0.61087-0.89013 0.60215-1.3701 1.5708-0.47997 0.96867-0.47997 2.077v1.1868q0 1.5185 0.52361 2.5744 0.53233 1.0472 1.4748 1.597 0.94249 0.54106 2.1904 0.54106 0.81159 0 1.4661-0.22689 0.66324-0.23563 1.1432-0.69815 0.47997-0.47124 0.74178-1.1694l1.9897 0.55851q-0.31416 1.0123-1.0559 1.7803-0.74178 0.75923-1.8326 1.1868-1.0908 0.41889-2.4522 0.41889z"/>
  <path d="m399.08 164.74v8.0635h-2.0595v-13.404h1.9897v2.0944h0.17454q0.47125-1.021 1.4312-1.6406 0.95995-0.62833 2.4784-0.62833 1.3614 0 2.3824 0.55851 1.021 0.54979 1.5883 1.6755 0.56724 1.117 0.56724 2.8275v8.5173h-2.0595v-8.3777q0-1.5796-0.82032-2.461-0.82031-0.89013-2.2515-0.89013-0.98612 0-1.7628 0.42761-0.76796 0.42761-1.213 1.2479-0.44506 0.82031-0.44506 1.9897z"/>
  <path d="m417.23 159.4v1.7454h-6.9465v-1.7454zm-4.9219-3.2114h2.0595v12.776q0 0.87268 0.25307 1.309 0.26181 0.42761 0.66324 0.57596 0.41016 0.13963 0.86395 0.13963 0.34034 0 0.55851-0.0349 0.21817-0.0436 0.34907-0.0698l0.41889 1.8501q-0.20944 0.0785-0.58469 0.15708-0.37526 0.0873-0.95122 0.0873-0.87268 0-1.7104-0.37525-0.82904-0.37526-1.3788-1.1432-0.54106-0.76796-0.54106-1.9374z"/>
  <path d="m427.53 164.18v1.9199h-7.8192v-1.9199z"/>
  <path d="m431.44 172.8v-17.872h2.0595v6.5974h0.17453q0.2269-0.34907 0.62833-0.89013 0.41016-0.54979 1.1694-0.9774 0.76795-0.43634 2.077-0.43634 1.693 0 2.9846 0.8465 1.2916 0.84649 2.0159 2.3999t0.72432 3.6652q0 2.1293-0.72432 3.6914-0.72432 1.5534-2.0072 2.4086-1.2828 0.8465-2.9584 0.8465-1.2916 0-2.0682-0.42761-0.77668-0.43634-1.1956-0.98613-0.41888-0.55851-0.64578-0.92504h-0.24435v2.0595zm2.0246-6.7022q0 1.5185 0.44506 2.6791 0.44507 1.1519 1.3003 1.8064 0.85523 0.64578 2.0944 0.64578 1.2916 0 2.1555-0.68069 0.87268-0.68941 1.309-1.8501 0.44507-1.1694 0.44507-2.6006 0-1.4137-0.43634-2.5482-0.42762-1.1432-1.3003-1.8064-0.86395-0.67196-2.173-0.67196-1.2567 0-2.1119 0.63705-0.85522 0.62833-1.2916 1.7628-0.43634 1.1258-0.43634 2.6268z"/>
  <path d="m450.36 173.12q-1.2741 0-2.3126-0.47998-1.0385-0.4887-1.6494-1.405-0.61087-0.92504-0.61087-2.234 0-1.1519 0.45379-1.8675 0.45379-0.72432 1.213-1.1345t1.6755-0.61088q0.92504-0.20944 1.8588-0.33161 1.2217-0.15709 1.981-0.23563 0.76796-0.0873 1.117-0.28798 0.3578-0.20072 0.3578-0.69814v-0.0698q0-1.2916-0.70687-2.0072-0.69814-0.71559-2.1206-0.71559-1.4748 0-2.3126 0.64578t-1.1781 1.3788l-1.9548-0.69814q0.5236-1.2218 1.3963-1.9024 0.8814-0.68941 1.9199-0.95994 1.0472-0.27926 2.0595-0.27926 0.64578 0 1.4836 0.15708 0.8465 0.14836 1.6319 0.6196 0.79413 0.47125 1.3177 1.4225t0.52361 2.5482v8.8315h-2.0595v-1.8152h-0.10472q-0.20945 0.43634-0.69814 0.93377-0.4887 0.49742-1.3003 0.84649-0.81159 0.34908-1.981 0.34908zm0.31416-1.8501q1.2218 0 2.0595-0.47997 0.8465-0.47998 1.2741-1.2392 0.43634-0.75922 0.43634-1.597v-1.885q-0.1309 0.15708-0.57597 0.28798-0.43634 0.12218-1.0123 0.21817-0.56724 0.0873-1.1083 0.15709-0.53233 0.0611-0.86395 0.10472-0.80286 0.10472-1.501 0.34034-0.68942 0.2269-1.117 0.68942-0.41888 0.45379-0.41888 1.2392 0 1.0734 0.79413 1.6232 0.80287 0.54106 2.0333 0.54106z"/>
  <path d="m469.77 162.4-1.8501 0.5236q-0.17453-0.46252-0.51488-0.89886-0.33161-0.44506-0.90758-0.73305-0.57597-0.28798-1.4748-0.28798-1.2305 0-2.0508 0.56724-0.81159 0.55852-0.81159 1.4225 0 0.76795 0.55852 1.213 0.55851 0.44506 1.7454 0.74177l1.9897 0.4887q1.7977 0.43634 2.6791 1.3352 0.8814 0.89013 0.8814 2.2951 0 1.1519-0.66323 2.0595-0.65451 0.90759-1.8326 1.4312-1.1781 0.52361-2.7402 0.52361-2.0508 0-3.3947-0.89013t-1.7017-2.6006l1.9548-0.4887q0.27925 1.0821 1.0559 1.6232 0.78541 0.54106 2.0508 0.54106 1.4399 0 2.2864-0.61087 0.85523-0.61961 0.85523-1.4836 0-0.69814-0.4887-1.1694-0.4887-0.47998-1.501-0.7156l-2.234-0.52361q-1.8414-0.43634-2.7053-1.3526-0.85523-0.92504-0.85523-2.3126 0-1.1345 0.63706-2.0072 0.64578-0.87268 1.7541-1.3701 1.117-0.49743 2.5308-0.49743 1.9897 0 3.1242 0.87268 1.1432 0.87267 1.6232 2.3039z"/>
  <path d="m478.74 173.08q-1.9374 0-3.3424-0.85523-1.3963-0.86395-2.1555-2.4086-0.7505-1.5534-0.7505-3.6129t0.7505-3.6303q0.75923-1.5796 2.1119-2.461 1.3614-0.89013 3.1765-0.89013 1.0472 0 2.0682 0.34907t1.8588 1.1345q0.83777 0.77668 1.3352 2.0595t0.49743 3.1591v0.87268h-10.333v-1.7803h8.2381q0-1.1345-0.45379-2.0246-0.44507-0.89013-1.2741-1.405-0.82032-0.51488-1.9374-0.51488-1.2305 0-2.1293 0.61087-0.89013 0.60215-1.3701 1.5708t-0.47997 2.077v1.1868q0 1.5185 0.5236 2.5744 0.53234 1.0472 1.4748 1.597 0.94249 0.54106 2.1904 0.54106 0.81159 0 1.4661-0.22689 0.66323-0.23563 1.1432-0.69815 0.47998-0.47124 0.74178-1.1694l1.9897 0.55851q-0.31416 1.0123-1.0559 1.7803-0.74177 0.75923-1.8326 1.1868-1.0908 0.41889-2.4522 0.41889z"/>
  <path d="m492.49 173.08q-1.6755 0-2.9584-0.8465-1.2828-0.85522-2.0072-2.4086-0.72432-1.5621-0.72432-3.6914 0-2.1119 0.72432-3.6652t2.0159-2.3999q1.2916-0.8465 2.9846-0.8465 1.309 0 2.0682 0.43634 0.76795 0.42761 1.1694 0.9774 0.41016 0.54106 0.63706 0.89013h0.17454v-6.5974h2.0595v17.872h-1.9897v-2.0595h-0.24435q-0.2269 0.36653-0.64578 0.92504-0.41889 0.54979-1.1956 0.98613-0.77668 0.42761-2.0682 0.42761zm0.27926-1.8501q1.2392 0 2.0944-0.64578 0.85522-0.65451 1.3003-1.8064 0.44506-1.1607 0.44506-2.6791 0-1.501-0.43634-2.6268-0.43634-1.1345-1.2916-1.7628-0.85522-0.63705-2.1119-0.63705-1.309 0-2.1817 0.67196-0.86395 0.66323-1.3003 1.8064-0.42761 1.1345-0.42761 2.5482 0 1.4312 0.43633 2.6006 0.44507 1.1607 1.309 1.8501 0.87268 0.68069 2.1642 0.68069z"/>
  <path d="m516.72 154.93h2.1642v12.776q0 1.7104-0.62833 2.906t-1.7715 1.8152q-1.1432 0.6196-2.6966 0.6196-1.4661 0-2.6093-0.53233-1.1432-0.54106-1.7977-1.5359-0.65451-0.99486-0.65451-2.365h2.1293q0 0.75923 0.37525 1.3265 0.38397 0.55851 1.0472 0.87268 0.66323 0.31416 1.5097 0.31416 0.93377 0 1.5883-0.3927 0.6545-0.39271 0.99485-1.1519 0.34907-0.76795 0.34907-1.8763z"/>
  <path d="m526.88 173.12q-1.2741 0-2.3126-0.47998-1.0385-0.4887-1.6494-1.405-0.61087-0.92504-0.61087-2.234 0-1.1519 0.45379-1.8675 0.45379-0.72432 1.213-1.1345t1.6755-0.61088q0.92504-0.20944 1.8588-0.33161 1.2218-0.15709 1.981-0.23563 0.76796-0.0873 1.117-0.28798 0.3578-0.20072 0.3578-0.69814v-0.0698q0-1.2916-0.70687-2.0072-0.69814-0.71559-2.1206-0.71559-1.4748 0-2.3126 0.64578t-1.1781 1.3788l-1.9548-0.69814q0.52361-1.2218 1.3963-1.9024 0.8814-0.68941 1.9199-0.95994 1.0472-0.27926 2.0595-0.27926 0.64578 0 1.4836 0.15708 0.8465 0.14836 1.6319 0.6196 0.79413 0.47125 1.3177 1.4225t0.52361 2.5482v8.8315h-2.0595v-1.8152h-0.10472q-0.20945 0.43634-0.69815 0.93377-0.4887 0.49742-1.3003 0.84649-0.81159 0.34908-1.981 0.34908zm0.31416-1.8501q1.2218 0 2.0595-0.47997 0.8465-0.47998 1.2741-1.2392 0.43634-0.75922 0.43634-1.597v-1.885q-0.1309 0.15708-0.57597 0.28798-0.43634 0.12218-1.0123 0.21817-0.56724 0.0873-1.1083 0.15709-0.53233 0.0611-0.86395 0.10472-0.80286 0.10472-1.501 0.34034-0.68942 0.2269-1.117 0.68942-0.41889 0.45379-0.41889 1.2392 0 1.0734 0.79414 1.6232 0.80286 0.54106 2.0333 0.54106z"/>
  <path d="m547.26 159.4-4.9568 13.404h-2.0944l-4.9568-13.404h2.234l3.7002 10.682h0.13963l3.7002-10.682z"/>
  <path d="m553.51 173.12q-1.2741 0-2.3126-0.47998-1.0385-0.4887-1.6494-1.405-0.61087-0.92504-0.61087-2.234 0-1.1519 0.45379-1.8675 0.45379-0.72432 1.213-1.1345t1.6755-0.61088q0.92504-0.20944 1.8588-0.33161 1.2218-0.15709 1.981-0.23563 0.76795-0.0873 1.117-0.28798 0.3578-0.20072 0.3578-0.69814v-0.0698q0-1.2916-0.70687-2.0072-0.69814-0.71559-2.1206-0.71559-1.4748 0-2.3126 0.64578t-1.1781 1.3788l-1.9548-0.69814q0.5236-1.2218 1.3963-1.9024 0.88141-0.68941 1.9199-0.95994 1.0472-0.27926 2.0595-0.27926 0.64578 0 1.4836 0.15708 0.8465 0.14836 1.6319 0.6196 0.79414 0.47125 1.3177 1.4225 0.52361 0.95122 0.52361 2.5482v8.8315h-2.0595v-1.8152h-0.10472q-0.20944 0.43634-0.69814 0.93377-0.4887 0.49742-1.3003 0.84649-0.81159 0.34908-1.981 0.34908zm0.31416-1.8501q1.2218 0 2.0595-0.47997 0.8465-0.47998 1.2741-1.2392 0.43634-0.75922 0.43634-1.597v-1.885q-0.1309 0.15708-0.57597 0.28798-0.43633 0.12218-1.0123 0.21817-0.56724 0.0873-1.1083 0.15709-0.53234 0.0611-0.86395 0.10472-0.80287 0.10472-1.501 0.34034-0.68941 0.2269-1.117 0.68942-0.41888 0.45379-0.41888 1.2392 0 1.0734 0.79414 1.6232 0.80286 0.54106 2.0333 0.54106z"/>
  <path d="m572.92 162.4-1.8501 0.5236q-0.17454-0.46252-0.51488-0.89886-0.33162-0.44506-0.90759-0.73305-0.57596-0.28798-1.4748-0.28798-1.2305 0-2.0508 0.56724-0.81159 0.55852-0.81159 1.4225 0 0.76795 0.55851 1.213 0.55851 0.44506 1.7454 0.74177l1.9897 0.4887q1.7977 0.43634 2.6791 1.3352 0.8814 0.89013 0.8814 2.2951 0 1.1519-0.66323 2.0595-0.65451 0.90759-1.8326 1.4312-1.1781 0.52361-2.7402 0.52361-2.0508 0-3.3947-0.89013t-1.7017-2.6006l1.9548-0.4887q0.27926 1.0821 1.0559 1.6232 0.78541 0.54106 2.0508 0.54106 1.4399 0 2.2864-0.61087 0.85522-0.61961 0.85522-1.4836 0-0.69814-0.4887-1.1694-0.4887-0.47998-1.501-0.7156l-2.2341-0.52361q-1.8414-0.43634-2.7053-1.3526-0.85522-0.92504-0.85522-2.3126 0-1.1345 0.63705-2.0072 0.64578-0.87268 1.7541-1.3701 1.117-0.49743 2.5308-0.49743 1.9897 0 3.1242 0.87268 1.1432 0.87267 1.6232 2.3039z"/>
  <path d="m581.72 173.08q-1.885 0-3.2464-0.89013t-2.0944-2.4522q-0.73305-1.5621-0.73305-3.5692 0-2.0421 0.7505-3.6042 0.75923-1.5708 2.1119-2.4522 1.3614-0.89013 3.1766-0.89013 1.4137 0 2.5482 0.52361 1.1345 0.5236 1.8588 1.4661 0.72432 0.9425 0.89886 2.1992h-2.0595q-0.23562-0.91631-1.0472-1.6232-0.80287-0.71559-2.1642-0.71559-1.2043 0-2.1119 0.62832-0.89886 0.6196-1.405 1.7541-0.49742 1.1258-0.49742 2.6442 0 1.5534 0.4887 2.7053 0.49742 1.1519 1.3963 1.789 0.90759 0.63705 2.1293 0.63705 0.80286 0 1.4574-0.27925 0.6545-0.27926 1.1083-0.80287 0.45379-0.5236 0.64578-1.2566h2.0595q-0.17454 1.1868-0.86395 2.1381-0.68069 0.94249-1.8064 1.501-1.117 0.54979-2.6006 0.54979z"/>
  <path d="m589.99 172.8v-13.404h1.9897v2.0246h0.13963q0.36652-0.99486 1.3265-1.6145 0.95994-0.6196 2.1642-0.6196 0.22689 0 0.56724 9e-3 0.34034 9e-3 0.51488 0.0262v2.0944q-0.10472-0.0262-0.47998-0.0785-0.36652-0.0611-0.77668-0.0611-0.9774 0-1.7454 0.41016-0.75923 0.40143-1.2043 1.117-0.43634 0.70687-0.43634 1.6145v8.4824z"/>
  <path d="m599.14 172.8v-13.404h2.0595v13.404zm1.0472-15.638q-0.60215 0-1.0385-0.41016-0.42761-0.41016-0.42761-0.98612 0-0.57597 0.42761-0.98613 0.43634-0.41016 1.0385-0.41016 0.60214 0 1.0298 0.41016 0.43634 0.41016 0.43634 0.98613 0 0.57596-0.43634 0.98612-0.42762 0.41016-1.0298 0.41016z"/>
  <path d="m604.97 177.83v-18.431h1.9897v2.1293h0.24435q0.22689-0.34907 0.62832-0.89013 0.41016-0.54979 1.1694-0.9774 0.76796-0.43634 2.077-0.43634 1.693 0 2.9846 0.8465 1.2916 0.84649 2.0159 2.3999 0.72432 1.5534 0.72432 3.6652 0 2.1293-0.72432 3.6914-0.72433 1.5534-2.0072 2.4086-1.2828 0.8465-2.9584 0.8465-1.2916 0-2.0682-0.42761-0.77669-0.43634-1.1956-0.98613-0.41889-0.55851-0.64578-0.92504h-0.17454v7.0861zm2.0246-11.729q0 1.5185 0.44507 2.6791 0.44506 1.1519 1.3003 1.8064 0.85522 0.64578 2.0944 0.64578 1.2916 0 2.1555-0.68069 0.87268-0.68941 1.309-1.8501 0.44507-1.1694 0.44507-2.6006 0-1.4137-0.43634-2.5482-0.42761-1.1432-1.3003-1.8064-0.86395-0.67196-2.173-0.67196-1.2567 0-2.1119 0.63705-0.85523 0.62833-1.2916 1.7628-0.43634 1.1258-0.43634 2.6268z"/>
  <path d="m625.77 159.4v1.7454h-6.9465v-1.7454zm-4.9219-3.2114h2.0595v12.776q0 0.87268 0.25308 1.309 0.2618 0.42761 0.66324 0.57596 0.41015 0.13963 0.86395 0.13963 0.34034 0 0.55851-0.0349 0.21817-0.0436 0.34907-0.0698l0.41889 1.8501q-0.20945 0.0785-0.5847 0.15708-0.37525 0.0873-0.95122 0.0873-0.87267 0-1.7104-0.37525-0.82905-0.37526-1.3788-1.1432-0.54106-0.76796-0.54106-1.9374z"/>
  <path d="m637.85 154.93v17.872h-2.0595v-17.872z"/>
  <path d="m641.62 172.8v-13.404h2.0595v13.404zm1.0472-15.638q-0.60215 0-1.0385-0.41016-0.42761-0.41016-0.42761-0.98612 0-0.57597 0.42761-0.98613 0.43634-0.41016 1.0385-0.41016t1.0298 0.41016q0.43634 0.41016 0.43634 0.98613 0 0.57596-0.43634 0.98612-0.42761 0.41016-1.0298 0.41016z"/>
  <path d="m647.73 172.8v-17.872h2.0595v6.5974h0.17454q0.22689-0.34907 0.62832-0.89013 0.41016-0.54979 1.1694-0.9774 0.76796-0.43634 2.077-0.43634 1.693 0 2.9846 0.8465 1.2916 0.84649 2.0159 2.3999 0.72432 1.5534 0.72432 3.6652 0 2.1293-0.72432 3.6914-0.72433 1.5534-2.0072 2.4086-1.2828 0.8465-2.9584 0.8465-1.2916 0-2.0682-0.42761-0.77669-0.43634-1.1956-0.98613-0.41889-0.55851-0.64578-0.92504h-0.24435v2.0595zm2.0246-6.7022q0 1.5185 0.44507 2.6791 0.44506 1.1519 1.3003 1.8064 0.85522 0.64578 2.0944 0.64578 1.2916 0 2.1555-0.68069 0.87268-0.68941 1.309-1.8501 0.44507-1.1694 0.44507-2.6006 0-1.4137-0.43634-2.5482-0.42761-1.1432-1.3003-1.8064-0.86395-0.67196-2.173-0.67196-1.2566 0-2.1119 0.63705-0.85522 0.62833-1.2916 1.7628-0.43634 1.1258-0.43634 2.6268z"/>
  <path d="m662.7 172.8v-13.404h1.9897v2.0246h0.13963q0.36653-0.99486 1.3265-1.6145 0.95995-0.6196 2.1642-0.6196 0.2269 0 0.56724 9e-3 0.34035 9e-3 0.51488 0.0262v2.0944q-0.10472-0.0262-0.47997-0.0785-0.36652-0.0611-0.77668-0.0611-0.9774 0-1.7454 0.41016-0.75923 0.40143-1.2043 1.117-0.43634 0.70687-0.43634 1.6145v8.4824z"/>
  <path d="m675.79 173.12q-1.2741 0-2.3126-0.47998-1.0385-0.4887-1.6494-1.405-0.61088-0.92504-0.61088-2.234 0-1.1519 0.45379-1.8675 0.4538-0.72432 1.213-1.1345t1.6755-0.61088q0.92504-0.20944 1.8588-0.33161 1.2218-0.15709 1.981-0.23563 0.76795-0.0873 1.117-0.28798 0.35779-0.20072 0.35779-0.69814v-0.0698q0-1.2916-0.70687-2.0072-0.69814-0.71559-2.1206-0.71559-1.4748 0-2.3126 0.64578t-1.1781 1.3788l-1.9548-0.69814q0.52361-1.2218 1.3963-1.9024 0.88141-0.68941 1.9199-0.95994 1.0472-0.27926 2.0595-0.27926 0.64579 0 1.4836 0.15708 0.84649 0.14836 1.6319 0.6196 0.79414 0.47125 1.3178 1.4225 0.5236 0.95122 0.5236 2.5482v8.8315h-2.0595v-1.8152h-0.10472q-0.20944 0.43634-0.69814 0.93377-0.4887 0.49742-1.3003 0.84649-0.81159 0.34908-1.981 0.34908zm0.31417-1.8501q1.2217 0 2.0595-0.47997 0.84649-0.47998 1.2741-1.2392 0.43634-0.75922 0.43634-1.597v-1.885q-0.1309 0.15708-0.57596 0.28798-0.43634 0.12218-1.0123 0.21817-0.56724 0.0873-1.1083 0.15709-0.53233 0.0611-0.86395 0.10472-0.80286 0.10472-1.501 0.34034-0.68941 0.2269-1.117 0.68942-0.41889 0.45379-0.41889 1.2392 0 1.0734 0.79414 1.6232 0.80286 0.54106 2.0333 0.54106z"/>
  <path d="m685.71 172.8v-13.404h1.9897v2.0246h0.13963q0.36652-0.99486 1.3265-1.6145 0.95994-0.6196 2.1642-0.6196 0.22689 0 0.56724 9e-3 0.34034 9e-3 0.51488 0.0262v2.0944q-0.10472-0.0262-0.47997-0.0785-0.36653-0.0611-0.77669-0.0611-0.9774 0-1.7454 0.41016-0.75923 0.40143-1.2043 1.117-0.43634 0.70687-0.43634 1.6145v8.4824z"/>
  <path d="m696.6 177.83q-0.52361 0-0.93377-0.0873-0.41015-0.0785-0.56724-0.15708l0.52361-1.8152q0.7505 0.19198 1.3265 0.13962 0.57597-0.0524 1.021-0.51488 0.4538-0.45379 0.82905-1.4748l0.38397-1.0472-4.9568-13.474h2.234l3.7002 10.682h0.13963l3.7002-10.682h2.2341l-5.6899 15.359q-0.38398 1.0385-0.95122 1.7192-0.56724 0.68942-1.3177 1.021-0.74178 0.33161-1.6755 0.33161z"/>
 </g>
</svg>
