<?xml version="1.0" encoding="UTF-8"?>
<!-- Created with Inkscape (http://www.inkscape.org/) -->
<svg width="512" height="512" version="1.1" viewBox="0 0 135.47 135.47" xmlns="http://www.w3.org/2000/svg">
 <path d="m101.95 13.89-19.759 11.408a0.86601 0.86601 89.999 0 0 2.7e-5 1.5l19.759 11.407a2.5981 2.5981 180 0 0 2.5981-5e-5l19.758-11.408a0.86605 0.86605 90 0 0 0-1.5l-19.758-11.408a2.598 2.598 7.1448e-5 0 0-2.5981-3e-6zm-71.04 13.671-19.759 11.409a0.86605 0.86605 90 0 0 9e-6 1.5l43.439 25.08a2.5981 2.5981 7.0301e-4 0 0 2.5981 3.2e-5l19.759-11.408a0.86603 0.86603 90.001 0 0 3.1e-5 -1.5l-43.439-25.081a2.598 2.598 1.8019e-4 0 0-2.598-8e-6zm48.659 2.2775v22.816a2.5981 2.5981 60 0 0 1.299 2.25l19.76 11.409a0.86602 0.86602 150 0 0 1.299-0.74999v-22.816a2.5981 2.5981 60 0 0-1.299-2.25l-19.76-11.409a0.86602 0.86602 150 0 0-1.299 0.74999zm46.061-0.74947-19.759 11.408a2.5981 2.5981 120 0 0-1.299 2.25v22.816a0.86603 0.86603 30 0 0 1.299 0.75l19.759-11.408a2.5981 2.5981 120 0 0 1.299-2.25v-22.816a0.86603 0.86603 30 0 0-1.299-0.75zm-117.1 14.421v22.816a2.5981 2.5981 60 0 0 1.299 2.25l21.082 12.171a2.5981 2.5981 60 0 1 1.299 2.25v24.344a2.5981 2.5981 60 0 0 1.299 2.25l19.759 11.408a0.86602 0.86602 150 0 0 1.299-0.74999v-50.159a2.5981 2.5981 60 0 0-1.299-2.25l-43.439-25.08a0.86602 0.86602 150 0 0-1.299 0.74999zm69.741 12.921-19.758 11.408a2.5981 2.5981 120 0 0-1.299 2.25v50.159a0.86603 0.86603 30 0 0 1.299 0.75l19.758-11.408a2.5981 2.5981 120 0 0 1.299-2.25v-50.16a0.86601 0.86601 29.999 0 0-1.299-0.74998z" fill="#45979b" stroke-linecap="round" stroke-width="1.4586"/>
</svg>
